<svg xmlns="http://www.w3.org/2000/svg" xmlns:xlink="http://www.w3.org/1999/xlink" width="180" zoomAndPan="magnify" viewBox="0 0 135 61.499998" height="82" preserveAspectRatio="xMidYMid meet" version="1.0"><path fill="#000000" d="M 28.09375 39.167969 C 25.816406 39.167969 23.816406 38.6875 22.101562 37.726562 C 20.382812 36.769531 19.066406 35.410156 18.144531 33.652344 C 17.21875 31.902344 16.757812 29.835938 16.757812 27.460938 C 16.757812 24.933594 17.324219 22.65625 18.460938 20.617188 C 19.59375 18.585938 21.167969 16.992188 23.179688 15.84375 C 25.191406 14.695312 27.460938 14.117188 29.988281 14.117188 C 30.917969 14.117188 31.871094 14.1875 32.847656 14.320312 C 33.820312 14.457031 34.640625 14.601562 35.308594 14.742188 C 35.980469 14.878906 36.402344 14.972656 36.578125 15.023438 L 36.726562 15.253906 C 36.679688 15.40625 36.601562 15.769531 36.488281 16.351562 C 36.375 16.9375 36.242188 17.695312 36.101562 18.632812 C 35.964844 19.5625 35.859375 20.546875 35.785156 21.582031 L 33.957031 21.730469 C 33.988281 21.609375 34.015625 21.378906 34.039062 21.039062 C 34.058594 20.691406 34.070312 20.304688 34.070312 19.882812 C 34.070312 17.53125 32.214844 16.351562 28.5 16.351562 C 26.835938 16.351562 25.371094 16.757812 24.109375 17.566406 C 22.84375 18.378906 21.871094 19.523438 21.183594 21.003906 C 20.503906 22.480469 20.164062 24.210938 20.164062 26.199219 C 20.164062 28.402344 20.519531 30.339844 21.238281 32.007812 C 21.964844 33.675781 22.980469 34.96875 24.292969 35.890625 C 25.609375 36.8125 27.121094 37.273438 28.839844 37.273438 C 30.566406 37.273438 31.949219 36.792969 32.992188 35.820312 C 34.042969 34.84375 34.808594 33.332031 35.285156 31.28125 L 37.113281 31.136719 C 37.035156 31.515625 36.867188 32.355469 36.613281 33.652344 C 36.363281 34.957031 36.1875 36.171875 36.089844 37.308594 L 35.863281 37.648438 C 35.863281 37.679688 35.476562 37.828125 34.707031 38.089844 C 33.933594 38.355469 32.972656 38.601562 31.824219 38.828125 C 30.671875 39.054688 29.429688 39.167969 28.09375 39.167969 Z M 28.09375 39.167969 " fill-opacity="1" fill-rule="nonzero"/><path fill="#000000" d="M 37.945312 37.421875 C 38.753906 37.300781 39.300781 37.070312 39.589844 36.730469 C 39.886719 36.382812 40.035156 35.78125 40.035156 34.925781 L 40.066406 22.910156 C 40.066406 22.273438 39.992188 21.851562 39.839844 21.640625 C 39.6875 21.421875 39.386719 21.308594 38.933594 21.308594 L 37.914062 21.355469 L 37.789062 21.195312 L 38.027344 19.757812 C 38.144531 19.757812 38.519531 19.773438 39.148438 19.800781 C 39.785156 19.824219 40.636719 19.835938 41.703125 19.835938 C 42.25 19.835938 42.9375 19.796875 43.753906 19.722656 C 44.578125 19.648438 45.121094 19.597656 45.378906 19.574219 L 45.21875 21.164062 C 44.539062 21.238281 44.054688 21.363281 43.777344 21.527344 C 43.503906 21.695312 43.339844 21.902344 43.289062 22.148438 C 43.234375 22.398438 43.171875 22.917969 43.097656 23.703125 C 42.847656 27.09375 42.722656 30.847656 42.722656 34.957031 C 42.722656 35.59375 42.78125 36.058594 42.894531 36.355469 C 43.007812 36.644531 43.234375 36.835938 43.574219 36.933594 C 43.914062 37.03125 44.449219 37.082031 45.183594 37.082031 C 46.394531 37.082031 47.285156 36.984375 47.851562 36.785156 C 48.421875 36.582031 48.855469 36.183594 49.144531 35.59375 C 49.4375 35 49.699219 34.050781 49.925781 32.757812 L 51.59375 32.578125 L 51.707031 32.804688 C 51.652344 33.128906 51.53125 33.882812 51.34375 35.0625 C 51.15625 36.234375 50.984375 37.464844 50.835938 38.75 L 50.640625 38.976562 C 50.058594 38.953125 48.828125 38.902344 46.941406 38.828125 C 45.058594 38.75 43.472656 38.714844 42.1875 38.714844 C 41.175781 38.714844 40.230469 38.753906 39.363281 38.839844 C 38.492188 38.929688 37.945312 38.988281 37.71875 39.019531 Z M 37.945312 37.421875 " fill-opacity="1" fill-rule="nonzero"/><path fill="#000000" d="M 50.796875 37.5 C 51.753906 37.328125 52.398438 37.070312 52.726562 36.730469 C 53.058594 36.382812 53.226562 35.792969 53.226562 34.957031 L 53.257812 22.910156 C 53.257812 22.273438 53.183594 21.851562 53.03125 21.640625 C 52.878906 21.421875 52.578125 21.308594 52.125 21.308594 L 50.863281 21.355469 L 50.796875 21.195312 L 50.976562 19.757812 C 51.136719 19.757812 51.546875 19.773438 52.214844 19.800781 C 52.886719 19.824219 53.765625 19.835938 54.847656 19.835938 C 55.429688 19.835938 56.144531 19.796875 56.992188 19.722656 C 57.835938 19.648438 58.386719 19.597656 58.636719 19.574219 L 58.488281 21.128906 C 57.65625 21.226562 57.097656 21.386719 56.820312 21.605469 C 56.539062 21.816406 56.378906 22.214844 56.332031 22.796875 C 56.226562 24.816406 56.128906 27.050781 56.039062 29.5 C 55.953125 31.953125 55.914062 33.847656 55.914062 35.1875 C 55.914062 35.996094 56 36.542969 56.175781 36.820312 C 56.355469 37.101562 56.710938 37.238281 57.242188 37.238281 C 57.59375 37.238281 57.917969 37.226562 58.207031 37.207031 C 58.492188 37.175781 58.6875 37.148438 58.796875 37.125 L 58.863281 37.273438 L 58.601562 38.792969 C 58.300781 38.792969 57.730469 38.777344 56.890625 38.75 C 56.054688 38.726562 55.222656 38.714844 54.394531 38.714844 C 53.710938 38.714844 52.96875 38.753906 52.167969 38.839844 C 51.375 38.929688 50.855469 39 50.605469 39.054688 Z M 50.796875 37.5 " fill-opacity="1" fill-rule="nonzero"/><path fill="#000000" d="M 69.671875 39.246094 C 67.113281 32.320312 65.207031 27.253906 63.941406 24.042969 L 63.761719 24.042969 C 63.652344 25.253906 63.46875 27.515625 63.207031 30.828125 C 62.9375 34.140625 62.808594 35.964844 62.808594 36.285156 C 62.808594 36.621094 62.882812 36.851562 63.035156 36.988281 C 63.1875 37.125 63.4375 37.195312 63.796875 37.195312 L 65.007812 37.195312 L 65.089844 37.308594 L 64.816406 38.828125 C 64.589844 38.828125 64.152344 38.808594 63.511719 38.769531 C 62.867188 38.730469 62.230469 38.714844 61.59375 38.714844 C 61.085938 38.714844 60.542969 38.742188 59.960938 38.804688 C 59.386719 38.871094 59.007812 38.917969 58.828125 38.941406 L 58.984375 37.386719 C 59.644531 37.3125 60.109375 37.121094 60.378906 36.808594 C 60.660156 36.492188 60.847656 35.941406 60.949219 35.152344 C 61.152344 33.4375 61.425781 31.023438 61.765625 27.914062 C 62.105469 24.804688 62.273438 23.0625 62.273438 22.683594 C 62.273438 22.179688 62.078125 21.804688 61.683594 21.558594 C 61.300781 21.320312 60.625 21.175781 59.664062 21.128906 L 59.550781 20.9375 L 59.8125 19.6875 C 60.089844 19.710938 60.585938 19.742188 61.289062 19.777344 C 61.996094 19.820312 62.683594 19.835938 63.34375 19.835938 C 63.890625 19.835938 64.402344 19.824219 64.875 19.800781 C 65.339844 19.773438 65.652344 19.746094 65.804688 19.722656 C 66.558594 22.078125 67.296875 24.28125 68.015625 26.335938 C 68.742188 28.394531 69.335938 30.039062 69.796875 31.273438 C 70.265625 32.496094 70.5625 33.261719 70.695312 33.5625 L 70.886719 33.5625 C 71.164062 32.855469 71.789062 31.199219 72.757812 28.59375 C 73.734375 25.992188 74.789062 23.0625 75.921875 19.800781 C 76.074219 19.773438 76.269531 19.765625 76.515625 19.777344 C 76.753906 19.796875 76.988281 19.800781 77.21875 19.800781 C 77.488281 19.824219 77.890625 19.835938 78.429688 19.835938 C 78.832031 19.835938 79.417969 19.8125 80.191406 19.765625 C 80.960938 19.714844 81.472656 19.675781 81.722656 19.644531 L 81.800781 19.757812 L 81.609375 21.082031 C 80.722656 21.191406 80.101562 21.363281 79.746094 21.605469 C 79.398438 21.839844 79.226562 22.210938 79.226562 22.71875 C 79.226562 23.226562 79.308594 24.832031 79.484375 27.539062 C 79.667969 30.238281 79.84375 32.535156 80.019531 34.425781 C 80.148438 35.570312 80.308594 36.316406 80.507812 36.671875 C 80.710938 37.019531 81.054688 37.195312 81.539062 37.195312 L 82.402344 37.160156 L 82.480469 37.273438 L 82.21875 38.792969 C 82.015625 38.792969 81.621094 38.777344 81.039062 38.75 C 80.457031 38.726562 79.835938 38.714844 79.179688 38.714844 C 78.527344 38.714844 77.785156 38.75 76.945312 38.828125 C 76.109375 38.902344 75.667969 38.941406 75.617188 38.941406 L 75.777344 37.386719 C 76.433594 37.3125 76.898438 37.160156 77.171875 36.933594 C 77.449219 36.707031 77.589844 36.367188 77.589844 35.910156 C 77.589844 35.457031 77.457031 33.652344 77.195312 30.488281 C 76.929688 27.328125 76.746094 25.179688 76.648438 24.042969 L 76.457031 24.042969 C 74.964844 27.863281 73.070312 32.855469 70.773438 39.019531 Z M 69.671875 39.246094 " fill-opacity="1" fill-rule="nonzero"/><path fill="#000000" d="M 91.316406 38.792969 L 91.429688 37.421875 C 92.488281 37.347656 93.203125 37.234375 93.5625 37.082031 C 93.933594 36.929688 94.121094 36.679688 94.121094 36.332031 C 94.121094 35.921875 94.03125 35.492188 93.859375 35.039062 L 92.941406 32.121094 C 92.441406 32.09375 91.390625 32.078125 89.796875 32.078125 C 89.0625 32.078125 87.976562 32.152344 86.542969 32.304688 L 85.476562 35.117188 C 85.300781 35.695312 85.214844 36.046875 85.214844 36.171875 C 85.214844 36.582031 85.351562 36.875 85.621094 37.046875 C 85.902344 37.222656 86.359375 37.308594 86.996094 37.308594 L 88.628906 37.308594 L 88.742188 37.464844 L 88.515625 38.90625 C 88.257812 38.875 87.679688 38.832031 86.78125 38.78125 C 85.886719 38.738281 85.011719 38.714844 84.148438 38.714844 C 83.335938 38.714844 82.609375 38.726562 81.96875 38.75 C 81.324219 38.777344 80.890625 38.792969 80.664062 38.792969 L 80.890625 37.238281 C 81.449219 37.164062 81.894531 36.96875 82.21875 36.648438 C 82.542969 36.332031 82.871094 35.796875 83.207031 35.039062 L 89.152344 19.996094 L 91.851562 19.496094 L 92.113281 19.53125 C 92.113281 19.636719 92.683594 21.636719 93.835938 25.53125 C 94.984375 29.417969 96.015625 32.640625 96.921875 35.1875 C 97.175781 35.921875 97.5 36.433594 97.886719 36.730469 C 98.277344 37.019531 98.90625 37.199219 99.769531 37.273438 L 99.847656 37.421875 L 99.65625 38.792969 C 99.398438 38.792969 98.929688 38.777344 98.25 38.75 C 97.570312 38.726562 96.886719 38.714844 96.207031 38.714844 C 95.167969 38.714844 94.183594 38.75 93.246094 38.828125 C 92.316406 38.902344 91.710938 38.953125 91.429688 38.976562 Z M 89.71875 30.523438 C 90.601562 30.523438 91.523438 30.476562 92.488281 30.375 L 90.183594 23.023438 L 89.910156 23.023438 L 87.144531 30.523438 Z M 89.71875 30.523438 " fill-opacity="1" fill-rule="nonzero"/><path fill="#000000" d="M 100.871094 37.351562 C 101.882812 37.277344 102.597656 37.152344 103.011719 36.976562 C 103.425781 36.796875 103.695312 36.5 103.808594 36.082031 C 103.921875 35.667969 103.976562 34.941406 103.976562 33.902344 L 103.976562 21.355469 C 102.382812 21.410156 101.304688 21.5 100.746094 21.628906 C 100.191406 21.75 99.78125 22.046875 99.519531 22.511719 C 99.253906 22.984375 99.035156 23.859375 98.859375 25.144531 L 97.078125 25.257812 C 97.125 24.933594 97.203125 24.210938 97.316406 23.082031 C 97.4375 21.953125 97.511719 20.84375 97.535156 19.757812 L 97.839844 19.496094 L 100.527344 19.800781 L 110.195312 19.800781 L 112.964844 19.496094 L 113.257812 19.757812 C 113.285156 20.875 113.351562 21.980469 113.453125 23.070312 C 113.546875 24.152344 113.625 24.84375 113.679688 25.144531 L 111.929688 25.257812 C 111.730469 23.941406 111.503906 23.039062 111.238281 22.546875 C 110.972656 22.054688 110.582031 21.75 110.058594 21.628906 C 109.542969 21.5 108.554688 21.410156 107.085938 21.355469 C 106.957031 22.566406 106.839844 24.582031 106.734375 27.402344 C 106.636719 30.214844 106.585938 32.8125 106.585938 35.1875 C 106.585938 35.921875 106.726562 36.4375 107.007812 36.738281 C 107.285156 37.042969 107.738281 37.195312 108.367188 37.195312 C 108.828125 37.195312 109.203125 37.183594 109.492188 37.160156 C 109.777344 37.136719 109.960938 37.125 110.035156 37.125 L 110.148438 37.238281 L 109.890625 38.828125 C 109.53125 38.828125 108.875 38.808594 107.914062 38.769531 C 106.953125 38.730469 106.019531 38.714844 105.113281 38.714844 C 104.203125 38.714844 103.308594 38.730469 102.421875 38.769531 C 101.539062 38.808594 100.933594 38.839844 100.609375 38.863281 Z M 100.871094 37.351562 " fill-opacity="1" fill-rule="nonzero"/><path fill="#000000" d="M 28.027344 40.773438 C 27.859375 40.773438 27.734375 40.828125 27.652344 40.933594 C 27.578125 41.03125 27.539062 41.15625 27.539062 41.296875 L 27.539062 41.820312 L 28.289062 41.820312 C 28.386719 41.820312 28.464844 41.851562 28.527344 41.921875 C 28.59375 41.984375 28.628906 42.058594 28.628906 42.148438 C 28.628906 42.246094 28.59375 42.328125 28.527344 42.386719 C 28.464844 42.449219 28.386719 42.476562 28.289062 42.476562 L 27.539062 42.476562 L 27.539062 45.3125 C 27.539062 45.421875 27.507812 45.503906 27.4375 45.574219 C 27.375 45.640625 27.292969 45.675781 27.1875 45.675781 C 27.089844 45.675781 27.007812 45.640625 26.9375 45.574219 C 26.871094 45.503906 26.835938 45.421875 26.835938 45.3125 L 26.835938 42.476562 L 26.371094 42.476562 C 26.273438 42.476562 26.191406 42.449219 26.121094 42.386719 C 26.058594 42.328125 26.03125 42.246094 26.03125 42.148438 C 26.03125 42.058594 26.058594 41.984375 26.121094 41.921875 C 26.191406 41.851562 26.273438 41.820312 26.371094 41.820312 L 26.835938 41.820312 L 26.835938 41.296875 C 26.835938 40.949219 26.945312 40.671875 27.167969 40.46875 C 27.394531 40.257812 27.710938 40.152344 28.121094 40.152344 C 28.292969 40.152344 28.441406 40.183594 28.574219 40.242188 C 28.699219 40.304688 28.765625 40.398438 28.765625 40.523438 C 28.765625 40.617188 28.734375 40.695312 28.675781 40.761719 C 28.621094 40.824219 28.554688 40.855469 28.472656 40.855469 C 28.453125 40.855469 28.402344 40.84375 28.3125 40.820312 C 28.199219 40.792969 28.101562 40.773438 28.027344 40.773438 Z M 28.027344 40.773438 " fill-opacity="1" fill-rule="nonzero"/><path fill="#000000" d="M 37.855469 43.714844 C 37.855469 44.109375 37.765625 44.460938 37.59375 44.769531 C 37.417969 45.070312 37.179688 45.3125 36.878906 45.496094 C 36.574219 45.671875 36.246094 45.753906 35.882812 45.753906 C 35.519531 45.753906 35.183594 45.671875 34.882812 45.496094 C 34.578125 45.3125 34.339844 45.070312 34.167969 44.769531 C 33.992188 44.460938 33.90625 44.109375 33.90625 43.714844 C 33.90625 43.328125 33.992188 42.976562 34.167969 42.65625 C 34.339844 42.339844 34.578125 42.097656 34.882812 41.921875 C 35.183594 41.746094 35.519531 41.660156 35.882812 41.660156 C 36.246094 41.660156 36.574219 41.746094 36.878906 41.921875 C 37.179688 42.097656 37.417969 42.339844 37.59375 42.65625 C 37.765625 42.976562 37.855469 43.328125 37.855469 43.714844 Z M 37.152344 43.714844 C 37.152344 43.441406 37.09375 43.199219 36.980469 42.988281 C 36.867188 42.777344 36.710938 42.613281 36.515625 42.5 C 36.328125 42.378906 36.113281 42.316406 35.882812 42.316406 C 35.644531 42.316406 35.429688 42.378906 35.234375 42.5 C 35.042969 42.613281 34.894531 42.777344 34.78125 42.988281 C 34.667969 43.199219 34.609375 43.441406 34.609375 43.714844 C 34.609375 43.980469 34.667969 44.21875 34.78125 44.429688 C 34.894531 44.632812 35.042969 44.796875 35.234375 44.914062 C 35.429688 45.039062 35.644531 45.097656 35.882812 45.097656 C 36.113281 45.097656 36.328125 45.039062 36.515625 44.914062 C 36.710938 44.796875 36.867188 44.632812 36.980469 44.429688 C 37.09375 44.21875 37.152344 43.980469 37.152344 43.714844 Z M 37.152344 43.714844 " fill-opacity="1" fill-rule="nonzero"/><path fill="#000000" d="M 46.472656 41.75 C 46.578125 41.75 46.667969 41.789062 46.734375 41.863281 C 46.800781 41.933594 46.835938 42.015625 46.835938 42.113281 L 46.835938 44.097656 C 46.835938 44.621094 46.691406 45.027344 46.40625 45.3125 C 46.117188 45.601562 45.714844 45.742188 45.191406 45.742188 C 44.667969 45.742188 44.265625 45.601562 43.976562 45.3125 C 43.695312 45.027344 43.558594 44.621094 43.558594 44.097656 L 43.558594 42.113281 C 43.558594 42.015625 43.59375 41.933594 43.660156 41.863281 C 43.726562 41.789062 43.808594 41.75 43.910156 41.75 C 44.015625 41.75 44.101562 41.789062 44.171875 41.863281 C 44.238281 41.933594 44.273438 42.015625 44.273438 42.113281 L 44.273438 44.097656 C 44.273438 44.757812 44.578125 45.085938 45.191406 45.085938 C 45.492188 45.085938 45.726562 45.003906 45.882812 44.835938 C 46.042969 44.671875 46.121094 44.425781 46.121094 44.097656 L 46.121094 42.113281 C 46.121094 42.015625 46.15625 41.933594 46.222656 41.863281 C 46.292969 41.789062 46.375 41.75 46.472656 41.75 Z M 46.472656 41.75 " fill-opacity="1" fill-rule="nonzero"/><path fill="#000000" d="M 54.773438 41.660156 C 55.671875 41.660156 56.121094 42.203125 56.121094 43.28125 L 56.121094 45.3125 C 56.121094 45.421875 56.085938 45.503906 56.019531 45.574219 C 55.953125 45.640625 55.863281 45.675781 55.757812 45.675781 C 55.660156 45.675781 55.578125 45.640625 55.507812 45.574219 C 55.441406 45.503906 55.40625 45.421875 55.40625 45.3125 L 55.40625 43.28125 C 55.40625 42.996094 55.339844 42.765625 55.203125 42.589844 C 55.074219 42.410156 54.855469 42.316406 54.542969 42.316406 C 54.347656 42.316406 54.164062 42.363281 54 42.453125 C 53.839844 42.539062 53.714844 42.65625 53.625 42.804688 C 53.535156 42.949219 53.488281 43.109375 53.488281 43.28125 L 53.488281 45.3125 C 53.488281 45.421875 53.457031 45.503906 53.386719 45.574219 C 53.320312 45.640625 53.230469 45.675781 53.125 45.675781 C 53.019531 45.675781 52.933594 45.640625 52.867188 45.574219 C 52.804688 45.503906 52.773438 45.421875 52.773438 45.3125 L 52.773438 42.113281 C 52.773438 42.015625 52.808594 41.933594 52.878906 41.863281 C 52.945312 41.789062 53.027344 41.75 53.125 41.75 C 53.230469 41.75 53.320312 41.789062 53.386719 41.863281 C 53.457031 41.933594 53.488281 42.015625 53.488281 42.113281 L 53.488281 42.375 C 53.617188 42.179688 53.796875 42.011719 54.023438 41.875 C 54.253906 41.734375 54.503906 41.660156 54.773438 41.660156 Z M 54.773438 41.660156 " fill-opacity="1" fill-rule="nonzero"/><path fill="#000000" d="M 65.234375 40.140625 C 65.339844 40.140625 65.429688 40.171875 65.496094 40.242188 C 65.566406 40.304688 65.597656 40.386719 65.597656 40.492188 L 65.597656 45.3125 C 65.597656 45.421875 65.566406 45.503906 65.496094 45.574219 C 65.429688 45.640625 65.339844 45.675781 65.234375 45.675781 C 65.136719 45.675781 65.054688 45.640625 64.988281 45.574219 C 64.917969 45.503906 64.882812 45.421875 64.882812 45.3125 L 64.882812 45.109375 C 64.761719 45.289062 64.589844 45.445312 64.363281 45.574219 C 64.136719 45.691406 63.890625 45.753906 63.625 45.753906 C 63.289062 45.753906 62.984375 45.671875 62.707031 45.496094 C 62.433594 45.3125 62.21875 45.070312 62.058594 44.757812 C 61.902344 44.449219 61.820312 44.097656 61.820312 43.703125 C 61.820312 43.316406 61.894531 42.96875 62.046875 42.65625 C 62.207031 42.339844 62.421875 42.097656 62.695312 41.921875 C 62.972656 41.746094 63.277344 41.660156 63.601562 41.660156 C 63.867188 41.660156 64.113281 41.714844 64.339844 41.828125 C 64.566406 41.9375 64.75 42.078125 64.882812 42.25 L 64.882812 40.492188 C 64.882812 40.386719 64.917969 40.304688 64.988281 40.242188 C 65.054688 40.171875 65.136719 40.140625 65.234375 40.140625 Z M 63.714844 45.097656 C 63.949219 45.097656 64.160156 45.039062 64.339844 44.914062 C 64.519531 44.796875 64.660156 44.628906 64.757812 44.417969 C 64.863281 44.207031 64.917969 43.96875 64.917969 43.703125 C 64.917969 43.445312 64.863281 43.210938 64.757812 43 C 64.660156 42.789062 64.519531 42.621094 64.339844 42.5 C 64.160156 42.378906 63.949219 42.316406 63.714844 42.316406 C 63.480469 42.316406 63.273438 42.378906 63.09375 42.5 C 62.910156 42.621094 62.765625 42.789062 62.660156 43 C 62.554688 43.210938 62.5 43.445312 62.5 43.703125 C 62.5 43.96875 62.554688 44.207031 62.660156 44.417969 C 62.765625 44.628906 62.910156 44.796875 63.09375 44.914062 C 63.273438 45.039062 63.480469 45.097656 63.714844 45.097656 Z M 63.714844 45.097656 " fill-opacity="1" fill-rule="nonzero"/><path fill="#000000" d="M 74.707031 41.707031 C 74.8125 41.707031 74.902344 41.738281 74.96875 41.808594 C 75.039062 41.871094 75.070312 41.953125 75.070312 42.066406 L 75.070312 45.3125 C 75.070312 45.421875 75.039062 45.503906 74.96875 45.574219 C 74.902344 45.640625 74.8125 45.675781 74.707031 45.675781 C 74.609375 45.675781 74.527344 45.640625 74.460938 45.574219 C 74.390625 45.503906 74.355469 45.421875 74.355469 45.3125 L 74.355469 45.121094 C 74.226562 45.296875 74.050781 45.445312 73.824219 45.574219 C 73.601562 45.691406 73.363281 45.753906 73.097656 45.753906 C 72.761719 45.753906 72.457031 45.671875 72.179688 45.496094 C 71.898438 45.3125 71.679688 45.070312 71.519531 44.757812 C 71.367188 44.449219 71.292969 44.097656 71.292969 43.703125 C 71.292969 43.316406 71.367188 42.96875 71.519531 42.65625 C 71.679688 42.339844 71.894531 42.097656 72.167969 41.921875 C 72.445312 41.746094 72.75 41.660156 73.074219 41.660156 C 73.339844 41.660156 73.585938 41.714844 73.8125 41.828125 C 74.046875 41.9375 74.226562 42.078125 74.355469 42.25 L 74.355469 42.066406 C 74.355469 41.964844 74.390625 41.875 74.460938 41.808594 C 74.527344 41.738281 74.609375 41.707031 74.707031 41.707031 Z M 73.1875 45.097656 C 73.421875 45.097656 73.632812 45.039062 73.8125 44.914062 C 73.992188 44.796875 74.132812 44.628906 74.230469 44.417969 C 74.335938 44.207031 74.390625 43.96875 74.390625 43.703125 C 74.390625 43.445312 74.335938 43.214844 74.230469 43.011719 C 74.132812 42.800781 73.992188 42.632812 73.8125 42.511719 C 73.632812 42.382812 73.421875 42.316406 73.1875 42.316406 C 72.953125 42.316406 72.746094 42.378906 72.566406 42.5 C 72.382812 42.621094 72.238281 42.789062 72.132812 43 C 72.027344 43.203125 71.972656 43.4375 71.972656 43.703125 C 71.972656 43.96875 72.027344 44.207031 72.132812 44.417969 C 72.238281 44.628906 72.382812 44.796875 72.566406 44.914062 C 72.746094 45.039062 72.953125 45.097656 73.1875 45.097656 Z M 73.1875 45.097656 " fill-opacity="1" fill-rule="nonzero"/><path fill="#000000" d="M 82.070312 42.453125 L 82.070312 44.675781 C 82.070312 44.925781 82.175781 45.050781 82.398438 45.050781 C 82.4375 45.050781 82.484375 45.046875 82.546875 45.027344 C 82.605469 45.015625 82.652344 45.007812 82.683594 45.007812 C 82.75 45.007812 82.808594 45.035156 82.851562 45.085938 C 82.898438 45.140625 82.921875 45.207031 82.921875 45.289062 C 82.921875 45.398438 82.859375 45.488281 82.738281 45.5625 C 82.617188 45.640625 82.480469 45.675781 82.332031 45.675781 C 82.171875 45.675781 82.019531 45.660156 81.875 45.628906 C 81.742188 45.59375 81.617188 45.503906 81.515625 45.359375 C 81.40625 45.214844 81.355469 45 81.355469 44.710938 L 81.355469 42.453125 L 80.925781 42.453125 C 80.824219 42.453125 80.746094 42.425781 80.6875 42.363281 C 80.625 42.296875 80.59375 42.210938 80.59375 42.113281 C 80.59375 42.023438 80.625 41.949219 80.6875 41.886719 C 80.746094 41.828125 80.824219 41.796875 80.925781 41.796875 L 81.355469 41.796875 L 81.355469 41.171875 C 81.355469 41.066406 81.390625 40.980469 81.457031 40.910156 C 81.523438 40.84375 81.609375 40.808594 81.71875 40.808594 C 81.816406 40.808594 81.898438 40.84375 81.96875 40.910156 C 82.035156 40.980469 82.070312 41.066406 82.070312 41.171875 L 82.070312 41.796875 L 82.683594 41.796875 C 82.777344 41.796875 82.859375 41.828125 82.921875 41.898438 C 82.980469 41.960938 83.011719 42.035156 83.011719 42.125 C 83.011719 42.222656 82.980469 42.304688 82.921875 42.363281 C 82.859375 42.425781 82.777344 42.453125 82.683594 42.453125 Z M 82.070312 42.453125 " fill-opacity="1" fill-rule="nonzero"/><path fill="#000000" d="M 89.394531 45.3125 C 89.394531 45.421875 89.359375 45.503906 89.292969 45.574219 C 89.222656 45.640625 89.140625 45.675781 89.042969 45.675781 C 88.933594 45.675781 88.851562 45.640625 88.78125 45.574219 C 88.71875 45.503906 88.691406 45.421875 88.691406 45.3125 L 88.691406 42.078125 C 88.691406 41.972656 88.71875 41.886719 88.78125 41.820312 C 88.851562 41.75 88.933594 41.714844 89.042969 41.714844 C 89.140625 41.714844 89.222656 41.75 89.292969 41.820312 C 89.359375 41.886719 89.394531 41.972656 89.394531 42.078125 Z M 89.03125 41.21875 C 88.886719 41.21875 88.785156 41.191406 88.726562 41.136719 C 88.664062 41.085938 88.632812 41 88.632812 40.886719 L 88.632812 40.773438 C 88.632812 40.65625 88.667969 40.570312 88.738281 40.523438 C 88.804688 40.472656 88.90625 40.445312 89.042969 40.445312 C 89.179688 40.445312 89.277344 40.472656 89.339844 40.523438 C 89.40625 40.578125 89.441406 40.660156 89.441406 40.773438 L 89.441406 40.886719 C 89.441406 41.011719 89.40625 41.097656 89.339844 41.148438 C 89.277344 41.195312 89.171875 41.21875 89.03125 41.21875 Z M 89.03125 41.21875 " fill-opacity="1" fill-rule="nonzero"/><path fill="#000000" d="M 99.011719 43.714844 C 99.011719 44.109375 98.925781 44.460938 98.753906 44.769531 C 98.578125 45.070312 98.339844 45.3125 98.039062 45.496094 C 97.734375 45.671875 97.402344 45.753906 97.039062 45.753906 C 96.675781 45.753906 96.339844 45.671875 96.039062 45.496094 C 95.738281 45.3125 95.5 45.070312 95.324219 44.769531 C 95.148438 44.460938 95.066406 44.109375 95.066406 43.714844 C 95.066406 43.328125 95.148438 42.976562 95.324219 42.65625 C 95.5 42.339844 95.738281 42.097656 96.039062 41.921875 C 96.339844 41.746094 96.675781 41.660156 97.039062 41.660156 C 97.402344 41.660156 97.734375 41.746094 98.039062 41.921875 C 98.339844 42.097656 98.578125 42.339844 98.753906 42.65625 C 98.925781 42.976562 99.011719 43.328125 99.011719 43.714844 Z M 98.308594 43.714844 C 98.308594 43.441406 98.253906 43.199219 98.140625 42.988281 C 98.027344 42.777344 97.871094 42.613281 97.675781 42.5 C 97.484375 42.378906 97.269531 42.316406 97.039062 42.316406 C 96.804688 42.316406 96.589844 42.378906 96.390625 42.5 C 96.203125 42.613281 96.050781 42.777344 95.9375 42.988281 C 95.824219 43.199219 95.769531 43.441406 95.769531 43.714844 C 95.769531 43.980469 95.824219 44.21875 95.9375 44.429688 C 96.050781 44.632812 96.203125 44.796875 96.390625 44.914062 C 96.589844 45.039062 96.804688 45.097656 97.039062 45.097656 C 97.269531 45.097656 97.484375 45.039062 97.675781 44.914062 C 97.871094 44.796875 98.027344 44.632812 98.140625 44.429688 C 98.253906 44.21875 98.308594 43.980469 98.308594 43.714844 Z M 98.308594 43.714844 " fill-opacity="1" fill-rule="nonzero"/><path fill="#000000" d="M 106.710938 41.660156 C 107.609375 41.660156 108.0625 42.203125 108.0625 43.28125 L 108.0625 45.3125 C 108.0625 45.421875 108.027344 45.503906 107.960938 45.574219 C 107.890625 45.640625 107.804688 45.675781 107.699219 45.675781 C 107.597656 45.675781 107.515625 45.640625 107.449219 45.574219 C 107.382812 45.503906 107.347656 45.421875 107.347656 45.3125 L 107.347656 43.28125 C 107.347656 42.996094 107.277344 42.765625 107.144531 42.589844 C 107.011719 42.410156 106.792969 42.316406 106.484375 42.316406 C 106.285156 42.316406 106.105469 42.363281 105.941406 42.453125 C 105.78125 42.539062 105.65625 42.65625 105.566406 42.804688 C 105.476562 42.949219 105.429688 43.109375 105.429688 43.28125 L 105.429688 45.3125 C 105.429688 45.421875 105.394531 45.503906 105.328125 45.574219 C 105.257812 45.640625 105.171875 45.675781 105.066406 45.675781 C 104.957031 45.675781 104.875 45.640625 104.804688 45.574219 C 104.742188 45.503906 104.714844 45.421875 104.714844 45.3125 L 104.714844 42.113281 C 104.714844 42.015625 104.75 41.933594 104.816406 41.863281 C 104.886719 41.789062 104.96875 41.75 105.066406 41.75 C 105.171875 41.75 105.257812 41.789062 105.328125 41.863281 C 105.394531 41.933594 105.429688 42.015625 105.429688 42.113281 L 105.429688 42.375 C 105.558594 42.179688 105.734375 42.011719 105.960938 41.875 C 106.195312 41.734375 106.445312 41.660156 106.710938 41.660156 Z M 106.710938 41.660156 " fill-opacity="1" fill-rule="nonzero"/></svg>