<svg xmlns="http://www.w3.org/2000/svg" xmlns:xlink="http://www.w3.org/1999/xlink" width="1800" zoomAndPan="magnify" viewBox="0 0 1350 269.999989" height="360" preserveAspectRatio="xMidYMid meet" version="1.0"><defs><g/><clipPath id="2b4d5ceb17"><path d="M 122 91 L 266.222656 91 L 266.222656 229.730469 L 122 229.730469 Z M 122 91 " clip-rule="nonzero"/></clipPath><clipPath id="a5cdc63874"><path d="M 129 25.5 L 261 25.5 L 261 164 L 129 164 Z M 129 25.5 " clip-rule="nonzero"/></clipPath></defs><g clip-path="url(#2b4d5ceb17)"><path fill="#ffffff" d="M 266.082031 187.167969 L 266.082031 216.527344 L 156.007812 216.527344 L 156.007812 151.351562 C 153.234375 154.554688 150.558594 157.710938 148.023438 160.964844 C 133.726562 179.179688 123.683594 199.3125 128.609375 229.820312 C 113.691406 195.582031 129.421875 171.101562 150.699219 147.574219 C 152.421875 145.664062 154.191406 143.75 156.007812 141.835938 C 167.914062 129.164062 180.921875 116.496094 191.007812 102.53125 C 191.34375 102.054688 191.679688 101.625 192.011719 101.144531 C 194.164062 98.039062 196.171875 94.882812 198.039062 91.582031 C 196.03125 96.984375 193.6875 102.007812 191.007812 106.738281 L 191.007812 120.988281 L 253.121094 120.988281 L 253.121094 149.679688 L 190.960938 149.679688 L 190.960938 187.117188 L 266.082031 187.117188 Z M 266.082031 187.167969 " fill-opacity="1" fill-rule="nonzero"/></g><path fill="#ffffff" d="M 27 109.847656 C 75.101562 107.792969 117.132812 69.300781 140.609375 121.800781 C 114.121094 113.289062 89.589844 113.339844 65.96875 117.402344 C 104.269531 117.066406 131.382812 120.222656 138.984375 129.546875 C 105.035156 167.273438 66.160156 140.785156 27 109.847656 Z M 146.15625 111.523438 C 139.082031 86.707031 147.210938 69.445312 146.109375 52.660156 C 150.175781 72.121094 141.566406 96.554688 151.894531 113.195312 C 153.378906 112.09375 154.765625 110.996094 156.007812 109.847656 C 170.640625 96.601562 171.023438 79.867188 163.46875 61.21875 C 159.210938 50.699219 152.46875 39.558594 144.339844 28.082031 C 139.796875 71.644531 113.546875 87.660156 146.15625 111.523438 Z M 146.15625 111.523438 " fill-opacity="1" fill-rule="nonzero"/><g clip-path="url(#a5cdc63874)"><path fill="#ffffff" d="M 200.574219 45.582031 C 200.90625 39.414062 200.621094 32.722656 199.425781 25.5 C 202.390625 32.339844 204.160156 38.792969 204.875 44.867188 C 205.546875 50.554688 205.355469 55.960938 204.445312 61.125 L 260.867188 61.125 L 260.867188 90.53125 L 191.34375 90.53125 C 191.25 90.722656 191.105469 90.863281 190.960938 91.054688 C 181.398438 104.589844 168.296875 117.164062 155.960938 130.359375 C 155.195312 131.175781 154.476562 131.9375 153.710938 132.753906 C 144.722656 142.507812 136.210938 152.644531 129.996094 163.6875 C 136.070312 147.289062 145.726562 134.1875 155.960938 122.234375 C 156.007812 122.183594 156.007812 122.136719 156.054688 122.089844 C 172.839844 102.4375 191.105469 85.507812 197.941406 61.125 C 199.328125 56.292969 200.238281 51.128906 200.574219 45.582031 Z M 200.574219 45.582031 " fill-opacity="1" fill-rule="nonzero"/></g><g fill="#ffffff" fill-opacity="1"><g transform="translate(271.653064, 215.24589)"><g><path d="M 89.160156 -26.59375 C 62.570312 -26.59375 41.117188 -46.035156 41.117188 -77.542969 C 41.117188 -107.039062 59.21875 -130.054688 89.160156 -130.054688 C 102.347656 -130.054688 114.414062 -124.46875 123.351562 -115.753906 C 124.246094 -115.082031 125.585938 -115.082031 126.480469 -115.753906 L 144.132812 -133.40625 C 145.027344 -134.078125 145.027344 -135.417969 144.132812 -136.089844 C 130.277344 -150.167969 110.835938 -158.660156 89.160156 -158.660156 C 43.351562 -158.660156 10.949219 -124.246094 10.949219 -77.542969 C 10.949219 -28.828125 46.257812 2.234375 89.160156 2.234375 C 110.835938 2.234375 130.277344 -6.480469 144.132812 -20.335938 C 145.027344 -21.003906 145.027344 -22.347656 144.132812 -23.015625 L 126.480469 -40.894531 C 125.585938 -41.5625 124.246094 -41.5625 123.351562 -40.894531 C 114.414062 -31.957031 102.347656 -26.59375 89.160156 -26.59375 Z M 89.160156 -26.59375 "/></g></g></g><g fill="#ffffff" fill-opacity="1"><g transform="translate(426.727356, 215.24589)"><g><path d="M 87.820312 -158.660156 C 35.753906 -158.660156 10.277344 -118.433594 10.277344 -78.433594 C 10.277344 -38.4375 35.753906 2.011719 87.820312 2.011719 C 138.992188 2.011719 164.914062 -38.4375 164.914062 -78.433594 C 164.914062 -118.433594 138.992188 -158.660156 87.820312 -158.660156 Z M 87.820312 -26.144531 C 56.3125 -26.144531 40.671875 -52.066406 40.671875 -77.988281 C 40.671875 -104.132812 56.3125 -130.277344 87.820312 -130.277344 C 118.882812 -130.277344 134.746094 -104.132812 134.746094 -77.988281 C 134.746094 -52.066406 118.882812 -26.144531 87.820312 -26.144531 Z M 87.820312 -26.144531 "/></g></g></g><g fill="#ffffff" fill-opacity="1"><g transform="translate(604.817021, 215.24589)"><g><path d="M 45.808594 -128.042969 L 117.988281 -128.042969 C 119.328125 -128.042969 120.222656 -128.9375 120.222656 -129.832031 L 120.222656 -154.636719 C 120.222656 -155.53125 119.328125 -156.425781 117.988281 -156.425781 L 18.101562 -156.425781 C 16.757812 -156.425781 15.867188 -155.53125 15.867188 -154.636719 L 15.867188 -1.789062 C 15.867188 -0.894531 16.757812 0 18.101562 0 L 120 0 C 121.339844 0 122.234375 -0.894531 122.234375 -1.789062 L 122.234375 -27.261719 C 122.234375 -28.15625 121.339844 -29.050781 120 -29.050781 L 45.808594 -29.050781 L 45.808594 -64.355469 L 107.261719 -64.355469 C 108.378906 -64.355469 109.273438 -65.25 109.273438 -66.144531 L 109.273438 -90.949219 C 109.273438 -91.84375 108.378906 -92.738281 107.261719 -92.738281 L 45.808594 -92.738281 Z M 45.808594 -128.042969 "/></g></g></g><g fill="#ffffff" fill-opacity="1"><g transform="translate(736.205637, 215.24589)"><g><path d="M 60.113281 2.234375 C 85.585938 2.234375 109.496094 -14.078125 109.496094 -44.246094 C 109.496094 -62.570312 100.335938 -78.660156 83.351562 -86.480469 C 72.179688 -91.621094 61.230469 -91.621094 60.113281 -91.621094 C 49.832031 -91.621094 40.222656 -98.992188 40.222656 -110.390625 C 40.222656 -123.574219 49.160156 -129.832031 60.113281 -129.832031 C 70.390625 -129.832031 79.105469 -124.46875 79.550781 -113.296875 C 79.550781 -112.402344 80.671875 -111.507812 81.789062 -111.507812 L 106.816406 -111.507812 C 108.15625 -111.507812 109.050781 -112.402344 109.050781 -113.296875 C 108.601562 -140.109375 87.375 -158.433594 60.113281 -158.433594 C 34.414062 -158.433594 10.503906 -140.335938 10.503906 -110.390625 C 10.503906 -91.84375 19.886719 -76.648438 36.425781 -68.828125 C 47.820312 -63.6875 58.769531 -63.6875 60.113281 -63.6875 C 69.050781 -63.238281 80 -55.867188 80 -44.246094 C 80 -33.296875 70.613281 -26.59375 60.113281 -26.59375 C 49.832031 -26.59375 40.671875 -32.179688 40.222656 -43.796875 C 40.222656 -44.691406 39.105469 -45.363281 37.988281 -45.363281 L 12.738281 -45.363281 C 11.398438 -45.363281 10.503906 -44.691406 10.503906 -43.796875 C 10.949219 -14.300781 32.625 1.5625 60.113281 2.234375 Z M 60.113281 2.234375 "/></g></g></g><g fill="#ffffff" fill-opacity="1"><g transform="translate(857.538995, 215.24589)"><g><path d="M 96.089844 -130.054688 L 96.089844 -153.296875 C 96.089844 -154.1875 95.195312 -155.082031 93.855469 -155.082031 L 5.140625 -155.082031 C 3.800781 -155.082031 2.90625 -154.1875 2.90625 -153.296875 L 2.90625 -130.054688 C 2.90625 -129.160156 3.800781 -128.492188 5.140625 -128.492188 L 34.859375 -128.492188 L 34.859375 -1.789062 C 34.859375 -0.894531 35.53125 0 36.871094 0 L 62.121094 0 C 63.464844 0 64.132812 -0.894531 64.132812 -1.789062 L 64.132812 -128.492188 L 93.855469 -128.492188 C 95.195312 -128.492188 96.089844 -129.160156 96.089844 -130.054688 Z M 96.089844 -130.054688 "/></g></g></g><g fill="#ffffff" fill-opacity="1"><g transform="translate(957.644598, 215.24589)"><g><path d="M 88.9375 -17.652344 L 95.417969 -1.117188 C 95.640625 -0.445312 96.535156 0 97.207031 0 L 124.914062 0 C 126.480469 0 127.375 -1.117188 126.703125 -2.457031 L 65.699219 -159.777344 C 65.027344 -161.339844 62.347656 -161.339844 61.675781 -159.777344 L 0.671875 -2.457031 C 0 -1.117188 0.894531 0 2.679688 0 L 30.167969 0 C 31.0625 0 31.957031 -0.445312 32.179688 -1.117188 L 38.210938 -17.652344 Z M 47.820312 -44.023438 L 63.6875 -90.949219 L 79.328125 -44.023438 Z M 47.820312 -44.023438 "/></g></g></g><g fill="#ffffff" fill-opacity="1"><g transform="translate(1085.234526, 215.24589)"><g><path d="M 96.089844 -130.054688 L 96.089844 -153.296875 C 96.089844 -154.1875 95.195312 -155.082031 93.855469 -155.082031 L 5.140625 -155.082031 C 3.800781 -155.082031 2.90625 -154.1875 2.90625 -153.296875 L 2.90625 -130.054688 C 2.90625 -129.160156 3.800781 -128.492188 5.140625 -128.492188 L 34.859375 -128.492188 L 34.859375 -1.789062 C 34.859375 -0.894531 35.53125 0 36.871094 0 L 62.121094 0 C 63.464844 0 64.132812 -0.894531 64.132812 -1.789062 L 64.132812 -128.492188 L 93.855469 -128.492188 C 95.195312 -128.492188 96.089844 -129.160156 96.089844 -130.054688 Z M 96.089844 -130.054688 "/></g></g></g><g fill="#ffffff" fill-opacity="1"><g transform="translate(1185.34013, 215.24589)"><g><path d="M 45.585938 -128.042969 L 119.328125 -128.042969 C 120.667969 -128.042969 121.5625 -128.9375 121.5625 -129.832031 L 121.5625 -154.636719 C 121.5625 -155.53125 120.667969 -156.425781 119.328125 -156.425781 L 18.101562 -156.425781 C 16.984375 -156.425781 16.089844 -155.53125 16.089844 -154.636719 L 16.089844 -1.789062 C 16.089844 -0.894531 16.984375 0 18.101562 0 L 119.328125 0 C 120.667969 0 121.5625 -0.894531 121.5625 -1.789062 L 121.5625 -26.367188 C 121.5625 -27.261719 120.667969 -28.15625 119.328125 -28.15625 L 45.585938 -28.15625 L 45.585938 -63.910156 L 106.589844 -63.910156 C 107.933594 -63.910156 108.601562 -64.804688 108.601562 -65.699219 L 108.601562 -90.054688 C 108.601562 -90.949219 107.933594 -91.84375 106.589844 -91.84375 L 45.585938 -91.84375 Z M 45.585938 -128.042969 "/></g></g></g></svg>