<?xml version="1.0" encoding="UTF-8" standalone="no"?>
<svg
   width="1920"
   zoomAndPan="magnify"
   viewBox="0 0 1440 809.99999"
   height="1080"
   preserveAspectRatio="xMidYMid"
   version="1.0"
   id="svg30"
   sodipodi:docname="Logo.svg"
   inkscape:version="1.3 (0e150ed6c4, 2023-07-21)"
   xmlns:inkscape="http://www.inkscape.org/namespaces/inkscape"
   xmlns:sodipodi="http://sodipodi.sourceforge.net/DTD/sodipodi-0.dtd"
   xmlns="http://www.w3.org/2000/svg"
   xmlns:svg="http://www.w3.org/2000/svg">
  <sodipodi:namedview
     id="namedview30"
     pagecolor="#ffffff"
     bordercolor="#000000"
     borderopacity="0.25"
     inkscape:showpageshadow="2"
     inkscape:pageopacity="0.0"
     inkscape:pagecheckerboard="0"
     inkscape:deskcolor="#d1d1d1"
     showgrid="false"
     inkscape:zoom="0.36536458"
     inkscape:cx="922.36637"
     inkscape:cy="543.29295"
     inkscape:window-width="1920"
     inkscape:window-height="1009"
     inkscape:window-x="-8"
     inkscape:window-y="-8"
     inkscape:window-maximized="1"
     inkscape:current-layer="svg30" />
  <defs
     id="defs3">
    <clipPath
       id="40ea0d974b">
      <path
         d="M 187,342 H 318.91406 V 469.23437 H 187 Z m 0,0"
         clip-rule="nonzero"
         id="path1" />
    </clipPath>
    <clipPath
       id="e460a29820">
      <path
         d="M 100.11328,284 H 230 V 395 H 100.11328 Z m 0,0"
         clip-rule="nonzero"
         id="path2" />
    </clipPath>
    <clipPath
       id="9c72a6dcb3">
      <path
         d="M 194,282.44141 H 315 V 409 H 194 Z m 0,0"
         clip-rule="nonzero"
         id="path3" />
    </clipPath>
  </defs>
  <g
     clip-path="url(#40ea0d974b)"
     id="g4">
    <path
       fill="#1d532f"
       d="m 318.78125,430.30469 v 26.85156 H 218.10547 v -59.60938 c -2.53516,2.9336 -4.98438,5.81641 -7.30469,8.79297 -13.07422,16.66016 -22.25781,35.07422 -17.75391,62.97657 -13.64453,-31.3125 0.74219,-53.70704 20.20313,-75.22266 1.57422,-1.75 3.19531,-3.5 4.85547,-5.25 10.89062,-11.58984 22.78515,-23.17578 32.01562,-35.94922 0.30469,-0.4375 0.60938,-0.82812 0.91797,-1.26562 1.96875,-2.84375 3.80469,-5.73047 5.50781,-8.75 -1.83593,4.94531 -3.97656,9.53515 -6.42578,13.86718 v 13.03125 h 56.8086 v 26.24219 h -56.85547 v 34.24219 h 68.70703 z m 0,0"
       fill-opacity="1"
       fill-rule="nonzero"
       id="path4" />
  </g>
  <g
     clip-path="url(#e460a29820)"
     id="g5">
    <path
       fill="#1d532f"
       d="m 100.11328,359.58594 c 43.99609,-1.87891 82.4375,-37.08594 103.91016,10.93359 -24.22657,-7.78516 -46.66407,-7.73828 -68.26953,-4.02344 35.03125,-0.30468 59.82812,2.58203 66.78125,11.10938 -31.05079,34.50781 -66.60547,10.27734 -102.42188,-18.01953 z m 108.98438,1.53125 c -6.47266,-22.69922 0.96093,-38.48438 -0.043,-53.83594 3.71484,17.80078 -4.15625,40.14844 5.28906,55.36719 1.35547,-1.00391 2.625,-2.01172 3.76172,-3.0625 13.38281,-12.11328 13.73437,-27.42188 6.82422,-44.47657 -3.89453,-9.62109 -10.0586,-19.8125 -17.4961,-30.30859 -4.15234,39.84375 -28.16406,54.49219 1.66407,76.31641 z m 0,0"
       fill-opacity="1"
       fill-rule="nonzero"
       id="path5" />
  </g>
  <g
     clip-path="url(#9c72a6dcb3)"
     id="g6">
    <path
       fill="#1d532f"
       d="m 258.86719,300.80859 c 0.30468,-5.64062 0.043,-11.76562 -1.05078,-18.36718 2.71093,6.2539 4.32812,12.15625 4.98437,17.71093 0.61328,5.20313 0.4375,10.14453 -0.39062,14.8711 h 51.60546 v 26.89453 h -63.58984 c -0.0859,0.17578 -0.21875,0.30859 -0.35156,0.48047 -8.7461,12.3789 -20.72656,23.8789 -32.01172,35.94922 -0.69922,0.74609 -1.35547,1.44531 -2.05469,2.1875 -8.22265,8.92187 -16.00781,18.19531 -21.6914,28.29687 5.55078,-15 14.38671,-26.98437 23.74609,-37.91797 0.043,-0.043 0.043,-0.0859 0.0859,-0.13281 15.35156,-17.97266 32.05859,-33.45313 38.3125,-55.75781 1.26953,-4.41797 2.09765,-9.14063 2.40625,-14.21485 z m 0,0"
       fill-opacity="1"
       fill-rule="nonzero"
       id="path6" />
  </g>
  <g
     fill="#1d532f"
     fill-opacity="1"
     id="g9">
    <g
       transform="translate(323.87887,455.98727)"
       id="g8">
      <g
         id="g7">
        <path
           d="m 81.550781,-24.320312 c -24.324219,0 -43.945312,-17.78125 -43.945312,-46.601563 0,-26.980469 16.558593,-48.031255 43.945312,-48.031255 12.058594,0 23.093749,5.10938 31.269529,13.08204 0.81641,0.61328 2.04297,0.61328 2.86328,0 l 16.14453,-16.14844 c 0.82032,-0.61328 0.82032,-1.83985 0,-2.45313 -12.67187,-12.875 -30.45312,-20.64062 -50.277339,-20.64062 -41.898437,0 -71.535156,31.47656 -71.535156,74.191405 0,44.554687 32.292969,72.964844 71.535156,72.964844 19.824219,0 37.605469,-7.96875 50.277339,-20.640625 0.82032,-0.613282 0.82032,-1.839844 0,-2.453125 l -16.14453,-16.351563 c -0.82031,-0.613281 -2.04687,-0.613281 -2.86328,0 -8.17578,8.175782 -19.210935,13.082032 -31.269529,13.082032 z m 0,0"
           id="path7" />
      </g>
    </g>
  </g>
  <g
     fill="#1d532f"
     fill-opacity="1"
     id="g12">
    <g
       transform="translate(465.71469,455.98727)"
       id="g11">
      <g
         id="g10">
        <path
           d="m 80.324219,-145.11328 c -47.621094,0 -70.921875,36.78906 -70.921875,73.374999 0,36.582031 23.300781,73.578125 70.921875,73.578125 46.804691,0 70.511721,-36.996094 70.511721,-73.578125 0,-36.585939 -23.70703,-73.374999 -70.511721,-73.374999 z m 0,121.199218 c -28.820313,0 -43.125,-23.707032 -43.125,-47.417969 0,-23.910157 14.304687,-47.824219 43.125,-47.824219 28.410161,0 42.921871,23.914062 42.921871,47.824219 0,23.710937 -14.51171,47.417969 -42.921871,47.417969 z m 0,0"
           id="path9" />
      </g>
    </g>
  </g>
  <g
     fill="#1d532f"
     fill-opacity="1"
     id="g15">
    <g
       transform="translate(628.6011,455.98727)"
       id="g14">
      <g
         id="g13">
        <path
           d="m 41.898438,-117.11328 h 66.015622 c 1.22657,0 2.04688,-0.81641 2.04688,-1.63672 v -22.68359 c 0,-0.82032 -0.82031,-1.63672 -2.04688,-1.63672 H 16.554688 c -1.226563,0 -2.042969,0.8164 -2.042969,1.63672 V -1.636719 C 14.511719,-0.816406 15.328125,0 16.554688,0 h 93.199222 c 1.22656,0 2.04687,-0.816406 2.04687,-1.636719 v -23.296875 c 0,-0.820312 -0.82031,-1.636718 -2.04687,-1.636718 H 41.898438 v -32.292969 h 56.207031 c 1.023437,0 1.839843,-0.816407 1.839843,-1.636719 v -22.683594 c 0,-0.820312 -0.816406,-1.636718 -1.839843,-1.636718 H 41.898438 Z m 0,0"
           id="path12" />
      </g>
    </g>
  </g>
  <g
     fill="#1d532f"
     fill-opacity="1"
     id="g18">
    <g
       transform="translate(748.77326,455.98727)"
       id="g17">
      <g
         id="g16">
        <path
           d="m 54.980469,2.042969 c 23.300781,0 45.167971,-14.917969 45.167971,-42.511719 0,-16.757812 -8.378909,-31.476562 -23.914065,-38.628906 C 66.015625,-83.796875 56,-83.796875 54.980469,-83.796875 c -9.402344,0 -18.191407,-6.746094 -18.191407,-17.167965 0,-12.0625 8.175782,-17.78516 18.191407,-17.78516 9.402343,0 17.371093,4.90625 17.78125,15.125 0,0.82031 1.023437,1.63672 2.042969,1.63672 h 22.890624 c 1.226563,0 2.046876,-0.81641 2.046876,-1.63672 -0.410157,-24.52344 -19.828126,-41.28516 -44.761719,-41.28516 -23.503907,0 -45.375,16.55469 -45.375,43.94532 0,16.960934 8.585937,30.859371 23.710937,38.015621 10.421875,4.699219 20.4375,4.699219 21.664063,4.699219 8.175781,0.410156 18.191406,7.152344 18.191406,17.78125 0,10.015625 -8.585937,16.148438 -18.191406,16.148438 -9.402344,0 -17.78125,-5.109376 -18.191407,-15.738282 0,-0.820312 -1.023437,-1.433594 -2.042968,-1.433594 H 11.648438 c -1.226563,0 -2.042969,0.613282 -2.042969,1.433594 0.410156,26.976563 20.234375,41.488282 45.375,42.101563 z m 0,0"
           id="path15" />
      </g>
    </g>
  </g>
  <g
     fill="#1d532f"
     fill-opacity="1"
     id="g21">
    <g
       transform="translate(859.74857,455.98727)"
       id="g20">
      <g
         id="g19">
        <path
           d="m 87.886719,-118.95313 v -21.2539 c 0,-0.82031 -0.816407,-1.63672 -2.042969,-1.63672 H 4.699219 c -1.226563,0 -2.042969,0.81641 -2.042969,1.63672 v 21.2539 c 0,0.81641 0.816406,1.42969 2.042969,1.42969 H 31.882812 V -1.636719 C 31.882812,-0.816406 32.496094,0 33.722656,0 h 23.097656 c 1.226563,0 1.839844,-0.816406 1.839844,-1.636719 V -117.52344 H 85.84375 c 1.226562,0 2.042969,-0.61328 2.042969,-1.42969 z m 0,0"
           id="path18" />
      </g>
    </g>
  </g>
  <g
     fill="#1d532f"
     fill-opacity="1"
     id="g24">
    <g
       transform="translate(951.3083,455.98727)"
       id="g23">
      <g
         id="g22">
        <path
           d="m 81.34375,-16.148438 5.929688,15.125 C 87.476562,-0.410156 88.292969,0 88.90625,0 H 114.25 c 1.43359,0 2.25,-1.023438 1.63672,-2.25 L 60.089844,-146.13672 c -0.613282,-1.42969 -3.066406,-1.42969 -3.679688,0 L 0.613281,-2.25 C 0,-1.023438 0.816406,0 2.453125,0 H 27.59375 c 0.816406,0 1.632812,-0.410156 1.835938,-1.023438 l 5.519531,-15.125 z M 43.738281,-40.265625 58.25,-83.183594 72.558594,-40.265625 Z m 0,0"
           id="path21" />
      </g>
    </g>
  </g>
  <g
     fill="#1d532f"
     fill-opacity="1"
     id="g27">
    <g
       transform="translate(1068.0061,455.98727)"
       id="g26">
      <g
         id="g25">
        <path
           d="m 87.886719,-118.95313 v -21.2539 c 0,-0.82031 -0.816407,-1.63672 -2.042969,-1.63672 H 4.699219 c -1.226563,0 -2.042969,0.81641 -2.042969,1.63672 v 21.2539 c 0,0.81641 0.816406,1.42969 2.042969,1.42969 H 31.882812 V -1.636719 C 31.882812,-0.816406 32.496094,0 33.722656,0 h 23.097656 c 1.226563,0 1.839844,-0.816406 1.839844,-1.636719 V -117.52344 H 85.84375 c 1.226562,0 2.042969,-0.61328 2.042969,-1.42969 z m 0,0"
           id="path24" />
      </g>
    </g>
  </g>
  <g
     fill="#1d532f"
     fill-opacity="1"
     id="g30">
    <g
       transform="translate(1159.5658,455.98727)"
       id="g29">
      <g
         id="g28">
        <path
           d="m 41.695312,-117.11328 h 67.445318 c 1.22656,0 2.04687,-0.81641 2.04687,-1.63672 v -22.68359 c 0,-0.82032 -0.82031,-1.63672 -2.04687,-1.63672 H 16.554688 c -1.019532,0 -1.839844,0.8164 -1.839844,1.63672 V -1.636719 C 14.714844,-0.816406 15.535156,0 16.554688,0 h 92.585942 c 1.22656,0 2.04687,-0.816406 2.04687,-1.636719 v -22.480469 c 0,-0.816406 -0.82031,-1.636718 -2.04687,-1.636718 H 41.695312 v -32.699219 h 55.796876 c 1.226562,0 1.839843,-0.820313 1.839843,-1.636719 v -22.277344 c 0,-0.816406 -0.613281,-1.636718 -1.839843,-1.636718 H 41.695312 Z m 0,0"
           id="path27" />
      </g>
    </g>
  </g>
</svg>
