<?xml version="1.0" encoding="UTF-8" standalone="no"?>
<svg
   width="88.986938"
   zoomAndPan="magnify"
   viewBox="0 0 66.740204 21.778671"
   height="29.038229"
   preserveAspectRatio="xMidYMid"
   version="1.0"
   id="svg146"
   sodipodi:docname="Logo.svg"
   inkscape:export-filename="Logo.png"
   inkscape:export-xdpi="96"
   inkscape:export-ydpi="96"
   xmlns:inkscape="http://www.inkscape.org/namespaces/inkscape"
   xmlns:sodipodi="http://sodipodi.sourceforge.net/DTD/sodipodi-0.dtd"
   xmlns="http://www.w3.org/2000/svg"
   xmlns:svg="http://www.w3.org/2000/svg">
  <sodipodi:namedview
     id="namedview148"
     pagecolor="#505050"
     bordercolor="#eeeeee"
     borderopacity="1"
     inkscape:showpageshadow="0"
     inkscape:pageopacity="0"
     inkscape:pagecheckerboard="0"
     inkscape:deskcolor="#505050"
     showgrid="false" />
  <defs
     id="defs4" />
  <g
     fill="#000000"
     fill-opacity="1"
     id="g24"
     transform="translate(-63.362517,-84.259271)">
    <g
       transform="translate(62.315644,101.19677)"
       id="g22">
      <g
         id="g20">
        <path
           d="m 8.84375,0.3125 c -1.5625,0 -2.9375,-0.328125 -4.125,-0.984375 C 3.539062,-1.335938 2.632812,-2.273438 2,-3.484375 1.363281,-4.691406 1.046875,-6.113281 1.046875,-7.75 c 0,-1.738281 0.390625,-3.304688 1.171875,-4.703125 0.78125,-1.40625 1.863281,-2.503906 3.25,-3.296875 1.382812,-0.789062 2.945312,-1.1875 4.6875,-1.1875 0.644531,0 1.300781,0.04687 1.96875,0.140625 0.675781,0.09375 1.242188,0.1875 1.703125,0.28125 0.457031,0.09375 0.75,0.164063 0.875,0.203125 l 0.09375,0.15625 c -0.03125,0.105469 -0.08984,0.359375 -0.171875,0.765625 -0.07422,0.398437 -0.15625,0.917969 -0.25,1.5625 -0.09375,0.636719 -0.167969,1.3125 -0.21875,2.03125 l -1.265625,0.09375 c 0.01953,-0.08203 0.03516,-0.238281 0.04687,-0.46875 0.01953,-0.238281 0.03125,-0.503906 0.03125,-0.796875 0,-1.625 -1.277344,-2.4375 -3.828125,-2.4375 -1.148437,0 -2.15625,0.28125 -3.03125,0.84375 -0.875,0.554688 -1.546875,1.339844 -2.015625,2.359375 -0.46875,1.023437 -0.703125,2.21875 -0.703125,3.59375 0,1.511719 0.242187,2.84375 0.734375,4 0.5,1.148437 1.203125,2.039063 2.109375,2.671875 0.90625,0.636719 1.953125,0.953125 3.140625,0.953125 1.1875,0 2.140625,-0.332031 2.859375,-1 0.71875,-0.675781 1.242187,-1.722656 1.578125,-3.140625 l 1.25,-0.09375 c -0.05469,0.261719 -0.167969,0.839844 -0.34375,1.734375 C 14.550776,-2.585938 14.429683,-1.75 14.35937,-0.96875 l -0.15625,0.234375 c 0,0.023437 -0.265625,0.125 -0.796875,0.3125 -0.53125,0.179687 -1.195312,0.34375 -1.984375,0.5 C 10.628906,0.234375 9.769531,0.3125 8.84375,0.3125 Z m 0,0"
           id="path18" />
      </g>
    </g>
  </g>
  <g
     fill="#000000"
     fill-opacity="1"
     id="g32"
     transform="translate(-63.362517,-84.259271)">
    <g
       transform="translate(76.202384,101.19677)"
       id="g30">
      <g
         id="g28">
        <path
           d="m 1.75,-0.890625 c 0.550781,-0.082031 0.925781,-0.238281 1.125,-0.46875 0.207031,-0.238281 0.3125,-0.65625 0.3125,-1.25 l 0.03125,-8.28125 c 0,-0.4375 -0.058594,-0.726563 -0.171875,-0.875 -0.105469,-0.144531 -0.3125,-0.21875 -0.625,-0.21875 l -0.703125,0.03125 -0.078125,-0.109375 0.15625,-1 c 0.09375,0 0.351563,0.01172 0.78125,0.03125 0.4375,0.02344 1.019531,0.03125 1.75,0.03125 0.382813,0 0.859375,-0.02344 1.421875,-0.07813 0.570312,-0.05078 0.941406,-0.08594 1.109375,-0.109375 l -0.09375,1.09375 c -0.46875,0.05469 -0.804687,0.136719 -1,0.25 -0.1875,0.117188 -0.304687,0.261719 -0.34375,0.4375 -0.03125,0.167969 -0.074219,0.523438 -0.125,1.0625 -0.167969,2.335938 -0.25,4.921875 -0.25,7.765625 0,0.429687 0.035156,0.746094 0.109375,0.953125 0.082031,0.199219 0.238281,0.335938 0.46875,0.40625 0.238281,0.0625 0.609375,0.09375 1.109375,0.09375 0.832031,0 1.445313,-0.066406 1.84375,-0.203125 C 8.972656,-1.472656 9.269531,-1.75 9.46875,-2.15625 9.664062,-2.5625 9.84375,-3.207031 10,-4.09375 l 1.15625,-0.140625 0.07813,0.15625 c -0.04297,0.230469 -0.132813,0.75 -0.265625,1.5625 -0.125,0.804687 -0.242188,1.652344 -0.34375,2.546875 L 10.5,0.1875 C 10.09375,0.164062 9.238281,0.128906 7.9375,0.078125 6.644531,0.0234375 5.554688,0 4.671875,0 3.972656,0 3.320312,0.03125 2.71875,0.09375 2.125,0.15625 1.75,0.191406 1.59375,0.203125 Z m 0,0"
           id="path26" />
      </g>
    </g>
  </g>
  <g
     fill="#000000"
     fill-opacity="1"
     id="g40"
     transform="translate(-63.362517,-84.259271)">
    <g
       transform="translate(85.286073,101.19677)"
       id="g38">
      <g
         id="g36">
        <path
           d="m 1.515625,-0.828125 c 0.65625,-0.125 1.097656,-0.300781 1.328125,-0.53125 0.226562,-0.238281 0.34375,-0.644531 0.34375,-1.21875 l 0.03125,-8.3125 c 0,-0.4375 -0.058594,-0.726563 -0.171875,-0.875 -0.105469,-0.144531 -0.3125,-0.21875 -0.625,-0.21875 l -0.859375,0.03125 -0.046875,-0.109375 0.125,-1 c 0.101563,0 0.382813,0.01172 0.84375,0.03125 C 2.953125,-13.007812 3.5625,-13 4.3125,-13 c 0.394531,0 0.882812,-0.02344 1.46875,-0.07813 0.582031,-0.05078 0.960938,-0.08594 1.140625,-0.109375 l -0.109375,1.07813 c -0.574219,0.0625 -0.960938,0.171875 -1.15625,0.328125 -0.1875,0.148438 -0.296875,0.417969 -0.328125,0.8125 -0.074219,1.398438 -0.140625,2.9375 -0.203125,4.625 -0.054688,1.6875 -0.078125,2.996094 -0.078125,3.921875 0,0.554687 0.054687,0.929687 0.171875,1.125 0.125,0.1875 0.367188,0.28125 0.734375,0.28125 0.238281,0 0.457031,-0.00781 0.65625,-0.03125 0.207031,-0.019531 0.347656,-0.035156 0.421875,-0.046875 l 0.046875,0.109375 -0.1875,1.03125 C 6.679688,0.046875 6.289062,0.0351562 5.71875,0.015625 5.144531,0.00390625 4.570312,0 4,0 3.53125,0 3.019531,0.03125 2.46875,0.09375 1.914062,0.15625 1.554688,0.203125 1.390625,0.234375 Z m 0,0"
           id="path34" />
      </g>
    </g>
  </g>
  <g
     fill="#000000"
     fill-opacity="1"
     id="g48"
     transform="translate(-63.362517,-84.259271)">
    <g
       transform="translate(91.159032,101.19677)"
       id="g46">
      <g
         id="g44">
        <path
           d="m 8.640625,0.359375 c -1.761719,-4.757813 -3.074219,-8.25 -3.9375,-10.46875 H 4.5625 c -0.0625,0.84375 -0.1875,2.40625 -0.375,4.6875 -0.179688,2.273437 -0.265625,3.523437 -0.265625,3.75 0,0.230469 0.050781,0.390625 0.15625,0.484375 0.101563,0.09375 0.273437,0.140625 0.515625,0.140625 H 5.4375 l 0.046875,0.078125 -0.1875,1.046875 C 5.140625,0.078125 4.835938,0.0625 4.390625,0.03125 3.953125,0.0078125 3.515625,0 3.078125,0 2.734375,0 2.359375,0.0195312 1.953125,0.0625 1.554688,0.101562 1.296875,0.132812 1.171875,0.15625 l 0.109375,-1.0625 c 0.445312,-0.050781 0.765625,-0.1875 0.953125,-0.40625 0.195313,-0.21875 0.332031,-0.597656 0.40625,-1.140625 0.132813,-1.1875 0.316406,-2.847656 0.546875,-4.984375 0.238281,-2.144531 0.359375,-3.347656 0.359375,-3.609375 0,-0.34375 -0.136719,-0.597656 -0.40625,-0.765625 C 2.867188,-11.976562 2.40625,-12.078125 1.75,-12.109375 L 1.671875,-12.25 l 0.1875,-0.859375 c 0.1875,0.02344 0.523437,0.04687 1.015625,0.07813 C 3.363281,-13.007812 3.832031,-13 4.28125,-13 c 0.382812,0 0.738281,-0.0078 1.0625,-0.03125 0.320312,-0.01953 0.535156,-0.03516 0.640625,-0.04687 0.519531,1.617187 1.023437,3.136719 1.515625,4.5625 0.5,1.417969 0.910156,2.546875 1.234375,3.390625 0.320313,0.84375 0.523437,1.371094 0.609375,1.578125 h 0.140625 c 0.1875,-0.488281 0.613281,-1.628906 1.28125,-3.421875 0.675781,-1.789062 1.40625,-3.8125 2.1875,-6.0625 0.101563,-0.01953 0.238281,-0.02344 0.40625,-0.01563 0.164063,0.01172 0.328125,0.01563 0.484375,0.01563 0.1875,0.02344 0.460938,0.03125 0.828125,0.03125 0.28125,0 0.6875,-0.01563 1.21875,-0.04687 0.53125,-0.03906 0.878906,-0.07031 1.046875,-0.09375 L 17,-13.0625 l -0.140625,0.921875 c -0.605469,0.07422 -1.03125,0.195313 -1.28125,0.359375 -0.242187,0.15625 -0.359375,0.414062 -0.359375,0.765625 0,0.34375 0.0625,1.449219 0.1875,3.3125 0.125,1.867187 0.242188,3.449219 0.359375,4.75 0.09375,0.78125 0.207031,1.296875 0.34375,1.546875 0.132813,0.242188 0.367187,0.359375 0.703125,0.359375 l 0.609375,-0.03125 0.04687,0.09375 -0.1875,1.03125 c -0.136719,0 -0.40625,-0.0117188 -0.8125,-0.03125 C 16.070312,0.00390625 15.648438,0 15.203125,0 14.742188,0 14.226562,0.0234375 13.65625,0.078125 13.082031,0.128906 12.773438,0.15625 12.734375,0.15625 l 0.109375,-1.0625 C 13.300781,-0.957031 13.625,-1.0625 13.8125,-1.21875 14,-1.382812 14.09375,-1.625 14.09375,-1.9375 14.09375,-2.25 14,-3.488281 13.8125,-5.65625 13.632812,-7.832031 13.515625,-9.316406 13.453125,-10.109375 H 13.3125 c -1.023438,2.636719 -2.324219,6.074219 -3.90625,10.3125 z m 0,0"
           id="path42" />
      </g>
    </g>
  </g>
  <g
     fill="#000000"
     fill-opacity="1"
     id="g56"
     transform="translate(-63.362517,-84.259271)">
    <g
       transform="translate(107.36898,101.19677)"
       id="g54">
      <g
         id="g52">
        <path
           d="m 7.34375,0.046875 0.078125,-0.9375 c 0.726563,-0.050781 1.21875,-0.128906 1.46875,-0.234375 0.25,-0.101562 0.375,-0.273438 0.375,-0.515625 0,-0.28125 -0.058594,-0.578125 -0.171875,-0.890625 L 8.453125,-4.546875 c -0.34375,-0.00781 -1.0625,-0.015625 -2.15625,-0.015625 -0.511719,0 -1.261719,0.054688 -2.25,0.15625 L 3.3125,-2.484375 C 3.195312,-2.078125 3.140625,-1.832031 3.140625,-1.75 c 0,0.28125 0.09375,0.484375 0.28125,0.609375 0.1875,0.117187 0.5,0.171875 0.9375,0.171875 h 1.125 L 5.5625,-0.859375 5.40625,0.125 C 5.226562,0.113281 4.832031,0.0859375 4.21875,0.046875 3.601562,0.015625 3,0 2.40625,0 1.84375,0 1.335938,0.00390625 0.890625,0.015625 0.453125,0.0351562 0.15625,0.046875 0,0.046875 l 0.15625,-1.0625 c 0.382812,-0.050781 0.6875,-0.1875 0.90625,-0.40625 0.226562,-0.21875 0.457031,-0.585937 0.6875,-1.109375 l 4.09375,-10.359375 1.859375,-0.34375 0.1875,0.01563 c 0,0.07422 0.394531,1.453125 1.1875,4.140625 0.789063,2.679687 1.5,4.898437 2.125,6.65625 0.175781,0.5 0.394531,0.851563 0.65625,1.046875 0.269531,0.199219 0.703125,0.328125 1.296875,0.390625 l 0.0625,0.09375 -0.140625,0.9375 c -0.179687,0 -0.5,-0.0117188 -0.96875,-0.03125 C 11.640625,0.00390625 11.171875,0 10.703125,0 9.992188,0 9.316406,0.0234375 8.671875,0.078125 8.023438,0.128906 7.609375,0.164062 7.421875,0.1875 Z m -1.109375,-5.6875 c 0.613281,0 1.25,-0.035156 1.90625,-0.109375 l -1.59375,-5.0625 H 6.375 l -1.90625,5.171875 z m 0,0"
           id="path50" />
      </g>
    </g>
  </g>
  <g
     fill="#000000"
     fill-opacity="1"
     id="g64"
     transform="translate(-63.362517,-84.259271)">
    <g
       transform="translate(118.22772,101.19677)"
       id="g62">
      <g
         id="g60">
        <path
           d="m 3.0625,-0.9375 c 0.6875,-0.050781 1.171875,-0.140625 1.453125,-0.265625 0.289063,-0.125 0.476563,-0.328125 0.5625,-0.609375 0.082031,-0.289062 0.125,-0.789062 0.125,-1.5 v -8.640625 c -1.105469,0.03125 -1.851563,0.09375 -2.234375,0.1875 -0.375,0.08594 -0.65625,0.289063 -0.84375,0.609375 -0.179688,0.324219 -0.328125,0.929688 -0.453125,1.8125 L 0.4375,-9.265625 c 0.039062,-0.226563 0.097656,-0.726563 0.171875,-1.5 C 0.691406,-11.546875 0.738281,-12.3125 0.75,-13.0625 l 0.21875,-0.171875 1.84375,0.203125 h 6.671875 l 1.90625,-0.203125 0.203125,0.171875 c 0.01953,0.773438 0.0625,1.53125 0.125,2.28125 0.07031,0.75 0.125,1.230469 0.15625,1.4375 l -1.203125,0.078125 C 10.535156,-10.171875 10.375,-10.789062 10.1875,-11.125 10.007812,-11.46875 9.738281,-11.679688 9.375,-11.765625 9.019531,-11.859375 8.34375,-11.921875 7.34375,-11.953125 7.25,-11.117188 7.164062,-9.726562 7.09375,-7.78125 7.03125,-5.84375 7,-4.054688 7,-2.421875 c 0,0.5 0.09375,0.855469 0.28125,1.0625 0.195312,0.210937 0.507812,0.3125 0.9375,0.3125 0.3125,0 0.566406,-0.00391 0.765625,-0.015625 C 9.191406,-1.082031 9.320312,-1.09375 9.375,-1.09375 l 0.078125,0.078125 -0.1875,1.09375 C 9.023438,0.078125 8.570312,0.0625 7.90625,0.03125 7.25,0.0078125 6.609375,0 5.984375,0 5.359375,0 4.738281,0.0078125 4.125,0.03125 3.519531,0.0625 3.101562,0.0859375 2.875,0.109375 Z m 0,0"
           id="path58" />
      </g>
    </g>
  </g>
  <g
     fill="#000000"
     fill-opacity="1"
     id="g72"
     transform="translate(-63.362517,-84.259271)">
    <g
       transform="translate(69.599402,105.99107)"
       id="g70">
      <g
         id="g68">
        <path
           d="m 1.515625,-3.375 c -0.117187,0 -0.199219,0.039062 -0.25,0.109375 -0.054687,0.0625 -0.078125,0.148437 -0.078125,0.25 v 0.359375 h 0.515625 c 0.070313,0 0.128906,0.023438 0.171875,0.0625 0.039062,0.042969 0.0625,0.101562 0.0625,0.171875 0,0.0625 -0.023438,0.117187 -0.0625,0.15625 -0.042969,0.042969 -0.101562,0.0625 -0.171875,0.0625 H 1.1875 V -0.25 c 0,0.074219 -0.027344,0.136719 -0.078125,0.1875 C 1.066406,-0.0195312 1.007812,0 0.9375,0 0.875,0 0.816406,-0.0195312 0.765625,-0.0625 0.722656,-0.113281 0.703125,-0.175781 0.703125,-0.25 V -2.203125 H 0.375 c -0.0625,0 -0.117188,-0.019531 -0.15625,-0.0625 -0.042969,-0.039063 -0.0625,-0.09375 -0.0625,-0.15625 0,-0.070313 0.019531,-0.128906 0.0625,-0.171875 0.039062,-0.039062 0.09375,-0.0625 0.15625,-0.0625 h 0.328125 v -0.359375 c 0,-0.238281 0.078125,-0.429687 0.234375,-0.578125 0.15625,-0.144531 0.375,-0.21875 0.65625,-0.21875 0.113281,0 0.210938,0.027344 0.296875,0.078125 0.09375,0.042969 0.140625,0.105469 0.140625,0.1875 0,0.0625 -0.023438,0.117187 -0.0625,0.15625 -0.042969,0.042969 -0.089844,0.0625 -0.140625,0.0625 -0.011719,0 -0.046875,-0.00391 -0.109375,-0.015625 C 1.644531,-3.363281 1.578125,-3.375 1.515625,-3.375 Z m 0,0"
           id="path66" />
      </g>
    </g>
  </g>
  <g
     fill="#000000"
     fill-opacity="1"
     id="g80"
     transform="translate(-63.362517,-84.259271)">
    <g
       transform="translate(74.968166,105.99107)"
       id="g78">
      <g
         id="g76">
        <path
           d="m 2.921875,-1.34375 c 0,0.261719 -0.0625,0.5 -0.1875,0.71875 C 2.617188,-0.414062 2.457031,-0.25 2.25,-0.125 2.039062,-0.0078125 1.8125,0.046875 1.5625,0.046875 1.3125,0.046875 1.082031,-0.0078125 0.875,-0.125 0.664062,-0.25 0.5,-0.414062 0.375,-0.625 0.257812,-0.84375 0.203125,-1.082031 0.203125,-1.34375 c 0,-0.269531 0.054687,-0.515625 0.171875,-0.734375 0.125,-0.21875 0.289062,-0.382813 0.5,-0.5 0.207031,-0.125 0.4375,-0.1875 0.6875,-0.1875 0.25,0 0.476562,0.0625 0.6875,0.1875 0.207031,0.117187 0.367188,0.28125 0.484375,0.5 0.125,0.21875 0.1875,0.464844 0.1875,0.734375 z m -0.484375,0 c 0,-0.1875 -0.042969,-0.351562 -0.125,-0.5 C 2.238281,-1.988281 2.132812,-2.101562 2,-2.1875 1.875,-2.269531 1.726562,-2.3125 1.5625,-2.3125 c -0.167969,0 -0.320312,0.042969 -0.453125,0.125 -0.125,0.085938 -0.230469,0.199219 -0.3125,0.34375 -0.074219,0.148438 -0.109375,0.3125 -0.109375,0.5 0,0.179688 0.035156,0.339844 0.109375,0.484375 0.082031,0.148437 0.1875,0.261719 0.3125,0.34375 0.132813,0.074219 0.285156,0.109375 0.453125,0.109375 0.164062,0 0.3125,-0.035156 0.4375,-0.109375 0.132812,-0.082031 0.238281,-0.195313 0.3125,-0.34375 0.082031,-0.144531 0.125,-0.304687 0.125,-0.484375 z m 0,0"
           id="path74" />
      </g>
    </g>
  </g>
  <g
     fill="#000000"
     fill-opacity="1"
     id="g88"
     transform="translate(-63.362517,-84.259271)">
    <g
       transform="translate(81.449409,105.99107)"
       id="g86">
      <g
         id="g84">
        <path
           d="m 2.375,-2.703125 c 0.070312,0 0.128906,0.027344 0.171875,0.078125 C 2.597656,-2.582031 2.625,-2.523438 2.625,-2.453125 v 1.375 C 2.625,-0.722656 2.523438,-0.445312 2.328125,-0.25 2.128906,-0.0507812 1.847656,0.046875 1.484375,0.046875 1.128906,0.046875 0.851562,-0.0507812 0.65625,-0.25 0.457031,-0.445312 0.359375,-0.722656 0.359375,-1.078125 v -1.375 c 0,-0.070313 0.019531,-0.128906 0.0625,-0.171875 0.050781,-0.050781 0.113281,-0.078125 0.1875,-0.078125 0.070313,0 0.128906,0.027344 0.171875,0.078125 0.050781,0.042969 0.078125,0.101562 0.078125,0.171875 v 1.375 c 0,0.449219 0.207031,0.671875 0.625,0.671875 0.21875,0 0.378906,-0.054688 0.484375,-0.171875 0.113281,-0.113281 0.171875,-0.28125 0.171875,-0.5 v -1.375 c 0,-0.070313 0.019531,-0.128906 0.0625,-0.171875 C 2.253906,-2.675781 2.3125,-2.703125 2.375,-2.703125 Z m 0,0"
           id="path82" />
      </g>
    </g>
  </g>
  <g
     fill="#000000"
     fill-opacity="1"
     id="g96"
     transform="translate(-63.362517,-84.259271)">
    <g
       transform="translate(87.79674,105.99107)"
       id="g94">
      <g
         id="g92">
        <path
           d="m 1.75,-2.765625 c 0.613281,0 0.921875,0.371094 0.921875,1.109375 V -0.25 c 0,0.074219 -0.027344,0.136719 -0.078125,0.1875 C 2.550781,-0.0195312 2.492188,0 2.421875,0 2.359375,0 2.300781,-0.0195312 2.25,-0.0625 2.207031,-0.113281 2.1875,-0.175781 2.1875,-0.25 V -1.640625 C 2.1875,-1.847656 2.140625,-2.007812 2.046875,-2.125 1.953125,-2.25 1.800781,-2.3125 1.59375,-2.3125 c -0.148438,0 -0.277344,0.03125 -0.390625,0.09375 -0.105469,0.0625 -0.1875,0.148438 -0.25,0.25 -0.0625,0.09375 -0.09375,0.203125 -0.09375,0.328125 V -0.25 c 0,0.074219 -0.027344,0.136719 -0.078125,0.1875 C 0.738281,-0.0195312 0.679688,0 0.609375,0 0.535156,0 0.472656,-0.0195312 0.421875,-0.0625 0.378906,-0.113281 0.359375,-0.175781 0.359375,-0.25 v -2.203125 c 0,-0.070313 0.019531,-0.128906 0.0625,-0.171875 0.050781,-0.050781 0.113281,-0.078125 0.1875,-0.078125 0.070313,0 0.128906,0.027344 0.171875,0.078125 0.050781,0.042969 0.078125,0.101562 0.078125,0.171875 V -2.28125 C 0.941406,-2.414062 1.0625,-2.53125 1.21875,-2.625 1.382812,-2.71875 1.5625,-2.765625 1.75,-2.765625 Z m 0,0"
           id="path90" />
      </g>
    </g>
  </g>
  <g
     fill="#000000"
     fill-opacity="1"
     id="g104"
     transform="translate(-63.362517,-84.259271)">
    <g
       transform="translate(94.190424,105.99107)"
       id="g102">
      <g
         id="g100">
        <path
           d="m 2.5625,-3.8125 c 0.070312,0 0.128906,0.027344 0.171875,0.078125 C 2.785156,-3.691406 2.8125,-3.632812 2.8125,-3.5625 V -0.25 c 0,0.074219 -0.027344,0.136719 -0.078125,0.1875 C 2.691406,-0.0195312 2.632812,0 2.5625,0 2.488281,0 2.425781,-0.0195312 2.375,-0.0625 2.332031,-0.113281 2.3125,-0.175781 2.3125,-0.25 v -0.140625 c -0.085938,0.125 -0.203125,0.230469 -0.359375,0.3125 -0.15625,0.08203125 -0.324219,0.125 -0.5,0.125 C 1.210938,0.046875 1,-0.0078125 0.8125,-0.125 0.625,-0.25 0.472656,-0.414062 0.359375,-0.625 0.253906,-0.84375 0.203125,-1.085938 0.203125,-1.359375 c 0,-0.269531 0.050781,-0.507813 0.15625,-0.71875 0.113281,-0.21875 0.265625,-0.382813 0.453125,-0.5 0.1875,-0.125 0.394531,-0.1875 0.625,-0.1875 0.175781,0 0.34375,0.042969 0.5,0.125 0.15625,0.074219 0.28125,0.167969 0.375,0.28125 V -3.5625 c 0,-0.070312 0.019531,-0.128906 0.0625,-0.171875 C 2.425781,-3.785156 2.488281,-3.8125 2.5625,-3.8125 Z M 1.5,-0.40625 c 0.164062,0 0.3125,-0.039062 0.4375,-0.125 0.125,-0.082031 0.21875,-0.191406 0.28125,-0.328125 0.070312,-0.144531 0.109375,-0.3125 0.109375,-0.5 0,-0.175781 -0.039063,-0.335937 -0.109375,-0.484375 C 2.15625,-1.988281 2.0625,-2.101562 1.9375,-2.1875 1.8125,-2.269531 1.664062,-2.3125 1.5,-2.3125 c -0.15625,0 -0.296875,0.042969 -0.421875,0.125 -0.125,0.085938 -0.226563,0.199219 -0.296875,0.34375 -0.074219,0.148438 -0.109375,0.308594 -0.109375,0.484375 0,0.1875 0.035156,0.355469 0.109375,0.5 0.070312,0.136719 0.171875,0.246094 0.296875,0.328125 0.125,0.085938 0.265625,0.125 0.421875,0.125 z m 0,0"
           id="path98" />
      </g>
    </g>
  </g>
  <g
     fill="#000000"
     fill-opacity="1"
     id="g112"
     transform="translate(-63.362517,-84.259271)">
    <g
       transform="translate(100.71287,105.99107)"
       id="g110">
      <g
         id="g108">
        <path
           d="m 2.5625,-2.734375 c 0.070312,0 0.128906,0.027344 0.171875,0.078125 0.050781,0.042969 0.078125,0.101562 0.078125,0.171875 V -0.25 c 0,0.074219 -0.027344,0.136719 -0.078125,0.1875 C 2.691406,-0.0195312 2.632812,0 2.5625,0 2.488281,0 2.425781,-0.0195312 2.375,-0.0625 2.332031,-0.113281 2.3125,-0.175781 2.3125,-0.25 v -0.125 c -0.085938,0.117188 -0.203125,0.214844 -0.359375,0.296875 -0.15625,0.08203125 -0.324219,0.125 -0.5,0.125 C 1.210938,0.046875 1,-0.0078125 0.8125,-0.125 0.625,-0.25 0.472656,-0.414062 0.359375,-0.625 0.253906,-0.84375 0.203125,-1.085938 0.203125,-1.359375 c 0,-0.269531 0.050781,-0.507813 0.15625,-0.71875 0.113281,-0.21875 0.265625,-0.382813 0.453125,-0.5 0.1875,-0.125 0.394531,-0.1875 0.625,-0.1875 0.175781,0 0.34375,0.042969 0.5,0.125 0.15625,0.074219 0.28125,0.167969 0.375,0.28125 v -0.125 c 0,-0.070313 0.019531,-0.128906 0.0625,-0.171875 0.050781,-0.050781 0.113281,-0.078125 0.1875,-0.078125 z M 1.5,-0.40625 c 0.164062,0 0.3125,-0.039062 0.4375,-0.125 0.125,-0.082031 0.21875,-0.191406 0.28125,-0.328125 0.070312,-0.144531 0.109375,-0.3125 0.109375,-0.5 0,-0.175781 -0.039063,-0.335937 -0.109375,-0.484375 C 2.15625,-1.988281 2.0625,-2.101562 1.9375,-2.1875 1.8125,-2.269531 1.664062,-2.3125 1.5,-2.3125 c -0.15625,0 -0.296875,0.042969 -0.421875,0.125 -0.125,0.085938 -0.226563,0.199219 -0.296875,0.34375 -0.074219,0.148438 -0.109375,0.308594 -0.109375,0.484375 0,0.1875 0.035156,0.355469 0.109375,0.5 0.070312,0.136719 0.171875,0.246094 0.296875,0.328125 0.125,0.085938 0.265625,0.125 0.421875,0.125 z m 0,0"
           id="path106" />
      </g>
    </g>
  </g>
  <g
     fill="#000000"
     fill-opacity="1"
     id="g120"
     transform="translate(-63.362517,-84.259271)">
    <g
       transform="translate(107.23532,105.99107)"
       id="g118">
      <g
         id="g116">
        <path
           d="m 1.09375,-2.21875 v 1.53125 c 0,0.179688 0.078125,0.265625 0.234375,0.265625 0.019531,0 0.050781,-0.003906 0.09375,-0.015625 C 1.460938,-0.457031 1.5,-0.46875 1.53125,-0.46875 c 0.039062,0 0.078125,0.023438 0.109375,0.0625 0.03125,0.042969 0.046875,0.089844 0.046875,0.140625 0,0.074219 -0.042969,0.136719 -0.125,0.1875 C 1.476562,-0.0234375 1.382812,0 1.28125,0 1.164062,0 1.0625,-0.0078125 0.96875,-0.03125 0.875,-0.0625 0.789062,-0.125 0.71875,-0.21875 0.644531,-0.3125 0.609375,-0.460938 0.609375,-0.671875 V -2.21875 H 0.3125 c -0.0625,0 -0.121094,-0.019531 -0.171875,-0.0625 -0.0429688,-0.039062 -0.0625,-0.097656 -0.0625,-0.171875 0,-0.0625 0.0195312,-0.113281 0.0625,-0.15625 0.050781,-0.039063 0.109375,-0.0625 0.171875,-0.0625 h 0.296875 v -0.4375 c 0,-0.0625 0.019531,-0.117187 0.0625,-0.171875 0.050781,-0.050781 0.113281,-0.078125 0.1875,-0.078125 0.0625,0 0.113281,0.027344 0.15625,0.078125 0.050781,0.054688 0.078125,0.109375 0.078125,0.171875 v 0.4375 h 0.4375 c 0.0625,0 0.113281,0.023437 0.15625,0.0625 0.039062,0.042969 0.0625,0.101563 0.0625,0.171875 0,0.0625 -0.023438,0.117188 -0.0625,0.15625 -0.042969,0.042969 -0.09375,0.0625 -0.15625,0.0625 z m 0,0"
           id="path114" />
      </g>
    </g>
  </g>
  <g
     fill="#000000"
     fill-opacity="1"
     id="g128"
     transform="translate(-63.362517,-84.259271)">
    <g
       transform="translate(112.55258,105.99107)"
       id="g126">
      <g
         id="g124">
        <path
           d="m 0.828125,-0.25 c 0,0.074219 -0.027344,0.136719 -0.078125,0.1875 C 0.707031,-0.0195312 0.648438,0 0.578125,0 0.515625,0 0.457031,-0.0195312 0.40625,-0.0625 0.363281,-0.113281 0.34375,-0.175781 0.34375,-0.25 v -2.234375 c 0,-0.0625 0.019531,-0.117187 0.0625,-0.171875 0.050781,-0.050781 0.109375,-0.078125 0.171875,-0.078125 0.070313,0 0.128906,0.027344 0.171875,0.078125 0.050781,0.054688 0.078125,0.109375 0.078125,0.171875 z M 0.59375,-3.0625 C 0.488281,-3.0625 0.414062,-3.078125 0.375,-3.109375 0.332031,-3.148438 0.3125,-3.210938 0.3125,-3.296875 V -3.375 c 0,-0.082031 0.019531,-0.140625 0.0625,-0.171875 0.050781,-0.039063 0.125,-0.0625 0.21875,-0.0625 0.09375,0 0.160156,0.023437 0.203125,0.0625 0.039063,0.03125 0.0625,0.089844 0.0625,0.171875 v 0.078125 c 0,0.085937 -0.023437,0.148437 -0.0625,0.1875 C 0.753906,-3.078125 0.6875,-3.0625 0.59375,-3.0625 Z m 0,0"
           id="path122" />
      </g>
    </g>
  </g>
  <g
     fill="#000000"
     fill-opacity="1"
     id="g136"
     transform="translate(-63.362517,-84.259271)">
    <g
       transform="translate(117.08183,105.99107)"
       id="g134">
      <g
         id="g132">
        <path
           d="m 2.921875,-1.34375 c 0,0.261719 -0.0625,0.5 -0.1875,0.71875 C 2.617188,-0.414062 2.457031,-0.25 2.25,-0.125 2.039062,-0.0078125 1.8125,0.046875 1.5625,0.046875 1.3125,0.046875 1.082031,-0.0078125 0.875,-0.125 0.664062,-0.25 0.5,-0.414062 0.375,-0.625 0.257812,-0.84375 0.203125,-1.082031 0.203125,-1.34375 c 0,-0.269531 0.054687,-0.515625 0.171875,-0.734375 0.125,-0.21875 0.289062,-0.382813 0.5,-0.5 0.207031,-0.125 0.4375,-0.1875 0.6875,-0.1875 0.25,0 0.476562,0.0625 0.6875,0.1875 0.207031,0.117187 0.367188,0.28125 0.484375,0.5 0.125,0.21875 0.1875,0.464844 0.1875,0.734375 z m -0.484375,0 c 0,-0.1875 -0.042969,-0.351562 -0.125,-0.5 C 2.238281,-1.988281 2.132812,-2.101562 2,-2.1875 1.875,-2.269531 1.726562,-2.3125 1.5625,-2.3125 c -0.167969,0 -0.320312,0.042969 -0.453125,0.125 -0.125,0.085938 -0.230469,0.199219 -0.3125,0.34375 -0.074219,0.148438 -0.109375,0.3125 -0.109375,0.5 0,0.179688 0.035156,0.339844 0.109375,0.484375 0.082031,0.148437 0.1875,0.261719 0.3125,0.34375 0.132813,0.074219 0.285156,0.109375 0.453125,0.109375 0.164062,0 0.3125,-0.035156 0.4375,-0.109375 0.132812,-0.082031 0.238281,-0.195313 0.3125,-0.34375 0.082031,-0.144531 0.125,-0.304687 0.125,-0.484375 z m 0,0"
           id="path130" />
      </g>
    </g>
  </g>
  <g
     fill="#000000"
     fill-opacity="1"
     id="g144"
     transform="translate(-63.362517,-84.259271)">
    <g
       transform="translate(123.56307,105.99107)"
       id="g142">
      <g
         id="g140">
        <path
           d="m 1.75,-2.765625 c 0.613281,0 0.921875,0.371094 0.921875,1.109375 V -0.25 c 0,0.074219 -0.027344,0.136719 -0.078125,0.1875 C 2.550781,-0.0195312 2.492188,0 2.421875,0 2.359375,0 2.300781,-0.0195312 2.25,-0.0625 2.207031,-0.113281 2.1875,-0.175781 2.1875,-0.25 V -1.640625 C 2.1875,-1.847656 2.140625,-2.007812 2.046875,-2.125 1.953125,-2.25 1.800781,-2.3125 1.59375,-2.3125 c -0.148438,0 -0.277344,0.03125 -0.390625,0.09375 -0.105469,0.0625 -0.1875,0.148438 -0.25,0.25 -0.0625,0.09375 -0.09375,0.203125 -0.09375,0.328125 V -0.25 c 0,0.074219 -0.027344,0.136719 -0.078125,0.1875 C 0.738281,-0.0195312 0.679688,0 0.609375,0 0.535156,0 0.472656,-0.0195312 0.421875,-0.0625 0.378906,-0.113281 0.359375,-0.175781 0.359375,-0.25 v -2.203125 c 0,-0.070313 0.019531,-0.128906 0.0625,-0.171875 0.050781,-0.050781 0.113281,-0.078125 0.1875,-0.078125 0.070313,0 0.128906,0.027344 0.171875,0.078125 0.050781,0.042969 0.078125,0.101562 0.078125,0.171875 V -2.28125 C 0.941406,-2.414062 1.0625,-2.53125 1.21875,-2.625 1.382812,-2.71875 1.5625,-2.765625 1.75,-2.765625 Z m 0,0"
           id="path138" />
      </g>
    </g>
  </g>
</svg>
