<?xml version="1.0" encoding="UTF-8" standalone="no"?>
<svg
   width="25.00001"
   zoomAndPan="magnify"
   viewBox="0 0 18.750007 18.750008"
   height="25.000011"
   preserveAspectRatio="xMidYMid"
   version="1.0"
   id="svg13"
   sodipodi:docname="Pin.svg"
   inkscape:export-filename="Pin.png"
   inkscape:export-xdpi="96"
   inkscape:export-ydpi="96"
   xmlns:inkscape="http://www.inkscape.org/namespaces/inkscape"
   xmlns:sodipodi="http://sodipodi.sourceforge.net/DTD/sodipodi-0.dtd"
   xmlns="http://www.w3.org/2000/svg"
   xmlns:svg="http://www.w3.org/2000/svg">
  <sodipodi:namedview
     id="namedview15"
     pagecolor="#505050"
     bordercolor="#eeeeee"
     borderopacity="1"
     inkscape:showpageshadow="0"
     inkscape:pageopacity="0"
     inkscape:pagecheckerboard="0"
     inkscape:deskcolor="#505050"
     showgrid="false" />
  <defs
     id="defs5">
    <clipPath
       id="1d31e6047c">
      <path
         d="M 84.484375,84.484375 H 103.23438 V 103.23438 H 84.484375 Z m 0,0"
         clip-rule="nonzero"
         id="path2" />
    </clipPath>
  </defs>
  <g
     clip-path="url(#1d31e6047c)"
     id="g9"
     transform="translate(-84.484373,-84.484377)">
    <path
       fill="#000040"
       d="m 87.296875,84.484375 h 13.125005 c 0.37109,0 0.73046,0.07031 1.07812,0.214844 0.34375,0.140625 0.64844,0.34375 0.91016,0.609375 0.26562,0.261718 0.46875,0.566406 0.60937,0.910156 0.14453,0.347656 0.21485,0.707031 0.21485,1.078125 v 13.125005 c 0,0.37109 -0.0703,0.73046 -0.21485,1.07812 -0.14062,0.34375 -0.34375,0.64844 -0.60937,0.91016 -0.26172,0.26562 -0.56641,0.46875 -0.91016,0.60937 -0.34766,0.14453 -0.70703,0.21485 -1.07812,0.21485 H 87.296875 c -0.371094,0 -0.730469,-0.0703 -1.078125,-0.21485 -0.34375,-0.14062 -0.648438,-0.34375 -0.910156,-0.60937 -0.265625,-0.26172 -0.46875,-0.56641 -0.609375,-0.91016 -0.144531,-0.34766 -0.214844,-0.70703 -0.214844,-1.07812 V 87.296875 c 0,-0.371094 0.07031,-0.730469 0.214844,-1.078125 0.140625,-0.34375 0.34375,-0.648438 0.609375,-0.910156 0.261718,-0.265625 0.566406,-0.46875 0.910156,-0.609375 0.347656,-0.144531 0.707031,-0.214844 1.078125,-0.214844 z m 0,0"
       fill-opacity="1"
       fill-rule="nonzero"
       id="path7" />
  </g>
  <path
     fill="#ffffff"
     d="m 9.7031269,2.0507793 c -3.992188,0 -6.003906,2.855469 -6.003906,5.273438 0,1.429687 0.546875,2.7109367 1.71875,3.1874997 0.183594,0.07031 0.367187,0 0.441406,-0.183594 l 0.144531,-0.6953117 c 0.07422,-0.222657 0.03906,-0.292969 -0.109375,-0.476563 -0.328125,-0.402344 -0.546875,-0.917969 -0.546875,-1.648437 0,-2.125 1.574219,-4.027344 4.136719,-4.027344 2.2695311,0 3.5156251,1.390625 3.5156251,3.222656 0,2.453125 -1.097656,4.4648437 -2.671875,4.4648437 -0.8789061,0 -1.5390621,-0.695313 -1.3203121,-1.6093747 0.21875,-1.0625 0.734374,-2.199219 0.734374,-2.964844 0,-0.699219 -0.367187,-1.285156 -1.136718,-1.285156 -0.914063,0 -1.609375,0.953125 -1.609375,2.199219 0,0.769531 0.253906,1.316406 0.253906,1.316406 l -1.097656,4.5781247 c -0.292969,1.355469 -0.03516,3.039061 0,3.187501 0,0.10937 0.144531,0.14453 0.183593,0.0742 0.07422,-0.10938 1.171876,-1.42969 1.539063,-2.746096 l 0.585937,-2.34375 c 0.292969,0.585937 1.132813,1.058594 2.0507821,1.058594 2.707031,0 4.539062,-2.453126 4.539062,-5.7460937 0,-2.527344 -2.125,-4.835938 -5.3476561,-4.835938 z m 0,0"
     fill-opacity="1"
     fill-rule="nonzero"
     id="path11" />
</svg>
