<?xml version="1.0" encoding="UTF-8" standalone="no"?>
<svg
   width="25.00001"
   zoomAndPan="magnify"
   viewBox="0 0 18.750007 18.750008"
   height="25.000011"
   preserveAspectRatio="xMidYMid"
   version="1.0"
   id="svg11"
   sodipodi:docname="Twitt.svg"
   xmlns:inkscape="http://www.inkscape.org/namespaces/inkscape"
   xmlns:sodipodi="http://sodipodi.sourceforge.net/DTD/sodipodi-0.dtd"
   xmlns="http://www.w3.org/2000/svg"
   xmlns:svg="http://www.w3.org/2000/svg">
  <sodipodi:namedview
     id="namedview13"
     pagecolor="#505050"
     bordercolor="#eeeeee"
     borderopacity="1"
     inkscape:showpageshadow="0"
     inkscape:pageopacity="0"
     inkscape:pagecheckerboard="0"
     inkscape:deskcolor="#505050"
     showgrid="false" />
  <defs
     id="defs5">
    <clipPath
       id="627ed508c0">
      <path
         d="M 84.484375,84.484375 H 103.23438 V 103.23438 H 84.484375 Z m 0,0"
         clip-rule="nonzero"
         id="path2" />
    </clipPath>
  </defs>
  <g
     clip-path="url(#627ed508c0)"
     id="g9"
     transform="translate(-84.484373,-84.484377)">
    <path
       fill="#000040"
       d="M 100.89063,103.23438 H 86.828125 c -1.292969,0 -2.34375,-1.05079 -2.34375,-2.34375 V 86.828125 c 0,-1.292969 1.050781,-2.34375 2.34375,-2.34375 h 14.062505 c 1.29296,0 2.34375,1.050781 2.34375,2.34375 v 14.062505 c 0,1.29296 -1.05079,2.34375 -2.34375,2.34375 z m -9.207036,-4.613286 c 4.421875,0 6.839844,-3.664063 6.839844,-6.839844 0,-0.101562 0,-0.203125 -0.0039,-0.308594 0.46875,-0.335937 0.875,-0.761718 1.199219,-1.246094 -0.429688,0.191407 -0.894531,0.320313 -1.382812,0.378907 0.496093,-0.292969 0.875,-0.769531 1.058593,-1.332031 -0.464843,0.277343 -0.980469,0.476562 -1.527343,0.582031 -0.441407,-0.46875 -1.0625,-0.757813 -1.753907,-0.757813 -1.324219,0 -2.402343,1.078125 -2.402343,2.402344 0,0.1875 0.02344,0.371094 0.05859,0.550781 C 91.773438,91.953125 90,90.992188 88.816406,89.539062 c -0.207031,0.355469 -0.324218,0.765626 -0.324218,1.207032 0,0.835937 0.425781,1.570312 1.070312,2.003906 -0.394531,-0.01563 -0.765625,-0.125 -1.089844,-0.300781 0,0.0078 0,0.01953 0,0.03125 0,1.164062 0.832032,2.136719 1.925782,2.359375 -0.199219,0.05469 -0.410157,0.08203 -0.632813,0.08203 -0.152344,0 -0.304687,-0.01172 -0.449219,-0.03906 0.304688,0.953126 1.195313,1.648438 2.246094,1.667969 -0.824219,0.644531 -1.859375,1.03125 -2.984375,1.03125 -0.195313,0 -0.386719,-0.01172 -0.574219,-0.03516 1.058594,0.675781 2.324219,1.074219 3.679688,1.074219"
       fill-opacity="1"
       fill-rule="nonzero"
       id="path7" />
  </g>
</svg>
