<?xml version="1.0" encoding="UTF-8" standalone="no"?>
<svg
   width="24.307726"
   zoomAndPan="magnify"
   viewBox="0 0 18.230794 11.185551"
   height="14.914068"
   preserveAspectRatio="xMidYMid"
   version="1.0"
   id="svg11"
   sodipodi:docname="VK.svg"
   inkscape:version="1.2.2 (732a01da63, 2022-12-09)"
   xmlns:inkscape="http://www.inkscape.org/namespaces/inkscape"
   xmlns:sodipodi="http://sodipodi.sourceforge.net/DTD/sodipodi-0.dtd"
   xmlns="http://www.w3.org/2000/svg"
   xmlns:svg="http://www.w3.org/2000/svg">
  <sodipodi:namedview
     id="namedview13"
     pagecolor="#505050"
     bordercolor="#eeeeee"
     borderopacity="1"
     inkscape:showpageshadow="0"
     inkscape:pageopacity="0"
     inkscape:pagecheckerboard="0"
     inkscape:deskcolor="#505050"
     showgrid="false"
     inkscape:zoom="13.024"
     inkscape:cx="38.19871"
     inkscape:cy="12.476966"
     inkscape:window-width="1920"
     inkscape:window-height="1001"
     inkscape:window-x="-9"
     inkscape:window-y="-9"
     inkscape:window-maximized="1"
     inkscape:current-layer="svg11" />
  <defs
     id="defs5">
    <clipPath
       id="4ec39bf644">
      <path
         d="m 78,84.484375 h 31 V 103.23438 H 78 Z m 0,0"
         clip-rule="nonzero"
         id="path2" />
    </clipPath>
  </defs>
  <g
     clip-path="url(#4ec39bf644)"
     id="g9"
     transform="matrix(0.60333362,0,0,0.60333362,-47.221854,-50.972264)">
    <path
       fill="#000040"
       d="M 89.476562,93.496094 C 88.867188,93.859375 88.027344,93.125 86.238281,89.773438 85.316406,88.058594 85.21875,86.941406 84.617188,86.160156 84.328125,85.828125 83.96875,85.617188 83.539062,85.527344 H 79.21875 c 0,0 -0.734375,-0.06641 -0.882812,0.140625 -0.152344,0.207031 0,0.828125 0,0.828125 0,0 3.378906,8.5 7.210937,12.785156 3.476563,3.92578 7.460937,3.73438 7.460937,3.73438 0,0 2.324219,0.10937 2.636719,-0.46485 0.164063,-0.26172 0.246094,-0.54297 0.246094,-0.85156 0,0 -0.03516,-2.609376 1.082031,-2.988282 1.117188,-0.378907 2.539063,2.511722 4.042974,3.628902 1.17968,0.80079 1.50781,0.67579 2.04687,0.67579 h 4.03906 c 0,0 2.11719,-0.22657 1.11328,-2.00782 -0.082,-0.14843 -0.58593,-1.316404 -3.0039,-3.72656 -2.53125,-2.527344 -2.19141,-2.117188 0.85937,-6.488281 1.85547,-2.65625 2.60157,-4.28125 2.36328,-4.976563 -0.14062,-0.398437 -1.58984,-0.289062 -1.58984,-0.289062 h -4.5625 c -0.41406,-0.01563 -0.74219,0.144531 -0.98828,0.480468 -0.50781,0.90625 -0.71875,2.0625 -1.679689,3.804688 -2.023437,3.695312 -2.835937,3.886719 -3.164062,3.65625 -0.773438,-0.546875 -0.578125,-2.148438 -0.578125,-3.289062 0,-3.578126 0.507812,-5.070313 -0.984375,-5.480469 -0.351563,-0.09375 -0.710938,-0.152344 -1.078125,-0.171875 -0.578125,-0.04297 -1.160156,-0.05469 -1.742188,-0.04297 -1.351562,0 -2.40625,0.05078 -3.070312,0.398437 -0.539063,0.269532 -0.917969,0.878907 -0.667969,0.917969 0.546875,0.07031 0.984375,0.324219 1.324219,0.765625 0.464844,0.6875 0.445312,2.195313 0.445312,2.195313 0,0 0.269532,4.214843 -0.621094,4.734376 z m 0,0"
       fill-opacity="1"
       fill-rule="nonzero"
       id="path7" />
  </g>
</svg>
