<svg xmlns="http://www.w3.org/2000/svg" xmlns:xlink="http://www.w3.org/1999/xlink" width="40" zoomAndPan="magnify" viewBox="0 0 30 30.000001" height="40" preserveAspectRatio="xMidYMid meet" version="1.0"><defs><clipPath id="7bb193e7f5"><path d="M 4 4.761719 L 26 4.761719 L 26 13 L 4 13 Z M 4 4.761719 " clip-rule="nonzero"/></clipPath><clipPath id="387d624b3b"><path d="M 3.882812 7 L 26.382812 7 L 26.382812 24.359375 L 3.882812 24.359375 Z M 3.882812 7 " clip-rule="nonzero"/></clipPath></defs><path fill="#16182d" d="M 7.394531 9.613281 C 7.515625 9.613281 7.617188 9.515625 7.617188 9.394531 L 7.617188 6.140625 L 9.515625 6.140625 L 9.515625 7.636719 C 9.515625 7.753906 9.613281 7.851562 9.734375 7.851562 C 9.855469 7.851562 9.953125 7.753906 9.953125 7.636719 L 9.953125 5.921875 C 9.953125 5.800781 9.855469 5.703125 9.734375 5.703125 L 7.394531 5.703125 C 7.273438 5.703125 7.175781 5.800781 7.175781 5.921875 L 7.175781 9.394531 C 7.175781 9.515625 7.273438 9.613281 7.394531 9.613281 " fill-opacity="1" fill-rule="nonzero"/><g clip-path="url(#7bb193e7f5)"><path fill="#16182d" d="M 5.148438 12.679688 L 15.132812 5.265625 L 25.117188 12.742188 C 25.15625 12.773438 25.203125 12.789062 25.25 12.789062 C 25.316406 12.789062 25.382812 12.757812 25.425781 12.703125 C 25.496094 12.605469 25.476562 12.46875 25.382812 12.394531 L 15.265625 4.820312 C 15.1875 4.761719 15.078125 4.761719 15 4.820312 L 4.882812 12.328125 C 4.785156 12.402344 4.765625 12.539062 4.839844 12.632812 C 4.910156 12.730469 5.050781 12.75 5.148438 12.679688 " fill-opacity="1" fill-rule="nonzero"/></g><path fill="#16182d" d="M 9.996094 18.585938 L 8.617188 18.585938 L 8.617188 17.601562 L 9.996094 17.601562 Z M 8.617188 20.007812 L 8.617188 19.023438 L 9.996094 19.023438 L 9.996094 20.007812 Z M 10.707031 17.601562 C 10.828125 17.601562 10.925781 17.503906 10.925781 17.382812 C 10.925781 17.265625 10.828125 17.167969 10.707031 17.167969 L 7.90625 17.167969 C 7.785156 17.167969 7.6875 17.265625 7.6875 17.382812 C 7.6875 17.503906 7.785156 17.601562 7.90625 17.601562 L 8.179688 17.601562 L 8.179688 18.585938 L 7.90625 18.585938 C 7.785156 18.585938 7.6875 18.683594 7.6875 18.804688 C 7.6875 18.925781 7.785156 19.023438 7.90625 19.023438 L 8.179688 19.023438 L 8.179688 20.007812 L 7.90625 20.007812 C 7.785156 20.007812 7.6875 20.105469 7.6875 20.226562 C 7.6875 20.34375 7.785156 20.445312 7.90625 20.445312 L 10.707031 20.445312 C 10.828125 20.445312 10.925781 20.34375 10.925781 20.226562 C 10.925781 20.105469 10.828125 20.007812 10.707031 20.007812 L 10.433594 20.007812 L 10.433594 19.023438 L 10.707031 19.023438 C 10.828125 19.023438 10.925781 18.925781 10.925781 18.804688 C 10.925781 18.683594 10.828125 18.585938 10.707031 18.585938 L 10.433594 18.585938 L 10.433594 17.601562 L 10.707031 17.601562 " fill-opacity="1" fill-rule="nonzero"/><path fill="#16182d" d="M 21.015625 16.730469 L 21.015625 17.238281 C 20.066406 17.3125 19.351562 17.84375 19.351562 18.507812 C 19.351562 19.226562 20.179688 19.785156 21.238281 19.785156 C 22.019531 19.785156 22.683594 20.171875 22.683594 20.625 C 22.683594 21.082031 22.019531 21.46875 21.238281 21.46875 C 20.453125 21.46875 19.792969 21.082031 19.792969 20.625 C 19.792969 20.503906 19.691406 20.40625 19.570312 20.40625 C 19.449219 20.40625 19.351562 20.503906 19.351562 20.625 C 19.351562 21.292969 20.066406 21.824219 21.015625 21.894531 L 21.015625 22.402344 C 21.015625 22.523438 21.117188 22.621094 21.238281 22.621094 C 21.359375 22.621094 21.457031 22.523438 21.457031 22.402344 L 21.457031 21.894531 C 22.40625 21.824219 23.121094 21.292969 23.121094 20.625 C 23.121094 19.910156 22.292969 19.347656 21.238281 19.347656 C 20.453125 19.347656 19.792969 18.964844 19.792969 18.507812 C 19.792969 18.054688 20.453125 17.667969 21.238281 17.667969 C 22.019531 17.667969 22.683594 18.054688 22.683594 18.507812 C 22.683594 18.628906 22.78125 18.726562 22.902344 18.726562 C 23.023438 18.726562 23.121094 18.628906 23.121094 18.507812 C 23.121094 17.84375 22.40625 17.3125 21.457031 17.238281 L 21.457031 16.730469 C 21.457031 16.609375 21.359375 16.511719 21.238281 16.511719 C 21.117188 16.511719 21.015625 16.609375 21.015625 16.730469 " fill-opacity="1" fill-rule="nonzero"/><g clip-path="url(#387d624b3b)"><path fill="#16182d" d="M 23.527344 15.351562 C 22.84375 14.984375 22.066406 14.777344 21.238281 14.777344 C 20.082031 14.777344 19.019531 15.183594 18.1875 15.859375 L 18.1875 14.917969 C 18.1875 14.796875 18.089844 14.699219 17.96875 14.699219 L 12.195312 14.699219 C 12.074219 14.699219 11.976562 14.796875 11.976562 14.917969 L 11.976562 23.730469 L 6.636719 23.730469 L 6.636719 13.796875 L 15.132812 7.492188 L 23.527344 13.777344 Z M 25.625 19.566406 C 25.625 21.96875 23.65625 23.921875 21.238281 23.921875 C 18.820312 23.921875 16.851562 21.96875 16.851562 19.566406 C 16.851562 17.167969 18.820312 15.214844 21.238281 15.214844 C 23.65625 15.214844 25.625 17.167969 25.625 19.566406 Z M 12.414062 23.730469 L 12.417969 15.136719 L 17.746094 15.136719 L 17.746094 16.261719 C 16.921875 17.125 16.410156 18.289062 16.410156 19.566406 C 16.410156 21.347656 17.398438 22.90625 18.855469 23.730469 Z M 26.265625 15.28125 L 15.265625 7.042969 C 15.1875 6.984375 15.078125 6.984375 15 7.042969 L 4 15.207031 C 3.902344 15.28125 3.882812 15.417969 3.957031 15.515625 C 4.027344 15.609375 4.164062 15.628906 4.261719 15.558594 L 6.199219 14.121094 L 6.199219 23.730469 L 4.46875 23.730469 C 4.347656 23.730469 4.25 23.828125 4.25 23.949219 C 4.25 24.070312 4.347656 24.167969 4.46875 24.167969 L 19.894531 24.167969 C 20.320312 24.289062 20.773438 24.355469 21.238281 24.355469 C 21.703125 24.355469 22.152344 24.289062 22.578125 24.167969 L 25.695312 24.167969 C 25.816406 24.167969 25.914062 24.070312 25.914062 23.949219 C 25.914062 23.828125 25.816406 23.730469 25.695312 23.730469 L 23.617188 23.730469 C 25.078125 22.90625 26.0625 21.347656 26.0625 19.566406 C 26.0625 17.929688 25.230469 16.484375 23.964844 15.621094 L 23.964844 14.105469 L 26 15.628906 C 26.039062 15.660156 26.085938 15.671875 26.132812 15.671875 C 26.199219 15.671875 26.265625 15.644531 26.308594 15.585938 C 26.378906 15.492188 26.363281 15.355469 26.265625 15.28125 " fill-opacity="1" fill-rule="nonzero"/></g></svg>